%TF.GenerationSoftware,KiCad,Pcbnew,7.0.9*%
%TF.CreationDate,2023-12-31T17:34:02-06:00*%
%TF.ProjectId,AnalogSequencerFaceplate,416e616c-6f67-4536-9571-75656e636572,rev?*%
%TF.SameCoordinates,Original*%
%TF.FileFunction,Paste,Top*%
%TF.FilePolarity,Positive*%
%FSLAX46Y46*%
G04 Gerber Fmt 4.6, Leading zero omitted, Abs format (unit mm)*
G04 Created by KiCad (PCBNEW 7.0.9) date 2023-12-31 17:34:02*
%MOMM*%
%LPD*%
G01*
G04 APERTURE LIST*
G04 Aperture macros list*
%AMRoundRect*
0 Rectangle with rounded corners*
0 $1 Rounding radius*
0 $2 $3 $4 $5 $6 $7 $8 $9 X,Y pos of 4 corners*
0 Add a 4 corners polygon primitive as box body*
4,1,4,$2,$3,$4,$5,$6,$7,$8,$9,$2,$3,0*
0 Add four circle primitives for the rounded corners*
1,1,$1+$1,$2,$3*
1,1,$1+$1,$4,$5*
1,1,$1+$1,$6,$7*
1,1,$1+$1,$8,$9*
0 Add four rect primitives between the rounded corners*
20,1,$1+$1,$2,$3,$4,$5,0*
20,1,$1+$1,$4,$5,$6,$7,0*
20,1,$1+$1,$6,$7,$8,$9,0*
20,1,$1+$1,$8,$9,$2,$3,0*%
G04 Aperture macros list end*
%ADD10RoundRect,0.200000X-0.200000X-0.275000X0.200000X-0.275000X0.200000X0.275000X-0.200000X0.275000X0*%
%ADD11RoundRect,0.200000X0.275000X-0.200000X0.275000X0.200000X-0.275000X0.200000X-0.275000X-0.200000X0*%
%ADD12RoundRect,0.200000X0.200000X0.275000X-0.200000X0.275000X-0.200000X-0.275000X0.200000X-0.275000X0*%
%ADD13RoundRect,0.125000X0.125000X0.125000X-0.125000X0.125000X-0.125000X-0.125000X0.125000X-0.125000X0*%
%ADD14RoundRect,0.200000X-0.275000X0.200000X-0.275000X-0.200000X0.275000X-0.200000X0.275000X0.200000X0*%
%ADD15RoundRect,0.225000X0.225000X0.250000X-0.225000X0.250000X-0.225000X-0.250000X0.225000X-0.250000X0*%
%ADD16RoundRect,0.225000X-0.225000X-0.250000X0.225000X-0.250000X0.225000X0.250000X-0.225000X0.250000X0*%
%ADD17RoundRect,0.125000X-0.125000X-0.125000X0.125000X-0.125000X0.125000X0.125000X-0.125000X0.125000X0*%
%ADD18RoundRect,0.250000X-0.475000X0.250000X-0.475000X-0.250000X0.475000X-0.250000X0.475000X0.250000X0*%
%ADD19RoundRect,0.150000X-0.875000X-0.150000X0.875000X-0.150000X0.875000X0.150000X-0.875000X0.150000X0*%
%ADD20RoundRect,0.125000X-0.125000X0.125000X-0.125000X-0.125000X0.125000X-0.125000X0.125000X0.125000X0*%
%ADD21RoundRect,0.150000X-0.825000X-0.150000X0.825000X-0.150000X0.825000X0.150000X-0.825000X0.150000X0*%
%ADD22RoundRect,0.225000X0.250000X-0.225000X0.250000X0.225000X-0.250000X0.225000X-0.250000X-0.225000X0*%
%ADD23RoundRect,0.250000X-0.250000X-0.475000X0.250000X-0.475000X0.250000X0.475000X-0.250000X0.475000X0*%
%ADD24RoundRect,0.250000X0.250000X0.475000X-0.250000X0.475000X-0.250000X-0.475000X0.250000X-0.475000X0*%
%ADD25RoundRect,0.150000X-0.150000X0.512500X-0.150000X-0.512500X0.150000X-0.512500X0.150000X0.512500X0*%
%ADD26RoundRect,0.150000X-0.150000X0.825000X-0.150000X-0.825000X0.150000X-0.825000X0.150000X0.825000X0*%
G04 APERTURE END LIST*
D10*
%TO.C,R5*%
X349975000Y-180175000D03*
X351625000Y-180175000D03*
%TD*%
D11*
%TO.C,R105*%
X166150000Y-192650000D03*
X166150000Y-191000000D03*
%TD*%
D12*
%TO.C,R43*%
X293650000Y-174875000D03*
X292000000Y-174875000D03*
%TD*%
%TO.C,R41*%
X292010000Y-176625000D03*
X290360000Y-176625000D03*
%TD*%
%TO.C,R47*%
X276000000Y-195050000D03*
X274350000Y-195050000D03*
%TD*%
D13*
%TO.C,D42*%
X211100000Y-197300000D03*
X208900000Y-197300000D03*
%TD*%
D14*
%TO.C,R46*%
X277950000Y-171850000D03*
X277950000Y-173500000D03*
%TD*%
D11*
%TO.C,R44*%
X274000000Y-173450000D03*
X274000000Y-171800000D03*
%TD*%
D14*
%TO.C,R107*%
X137950000Y-172800000D03*
X137950000Y-174450000D03*
%TD*%
%TO.C,R122*%
X248650000Y-176000000D03*
X248650000Y-177650000D03*
%TD*%
D10*
%TO.C,R99*%
X186950000Y-181525000D03*
X188600000Y-181525000D03*
%TD*%
D15*
%TO.C,C7*%
X338000000Y-177325000D03*
X336450000Y-177325000D03*
%TD*%
D16*
%TO.C,C47*%
X184950000Y-176450000D03*
X186500000Y-176450000D03*
%TD*%
D10*
%TO.C,R3*%
X334400000Y-175725000D03*
X336050000Y-175725000D03*
%TD*%
%TO.C,R31*%
X79100000Y-173325000D03*
X80750000Y-173325000D03*
%TD*%
D17*
%TO.C,D56*%
X201950000Y-176625000D03*
X204150000Y-176625000D03*
%TD*%
D10*
%TO.C,R6*%
X351300000Y-177650000D03*
X352950000Y-177650000D03*
%TD*%
D18*
%TO.C,C28*%
X294000000Y-176550000D03*
X294000000Y-178450000D03*
%TD*%
D12*
%TO.C,R45*%
X273000000Y-195050000D03*
X271350000Y-195050000D03*
%TD*%
D15*
%TO.C,C8*%
X354625000Y-179325000D03*
X353075000Y-179325000D03*
%TD*%
D14*
%TO.C,R123*%
X231600000Y-190400000D03*
X231600000Y-192050000D03*
%TD*%
D17*
%TO.C,D55*%
X201925000Y-174575000D03*
X204125000Y-174575000D03*
%TD*%
D12*
%TO.C,R2*%
X332950000Y-175725000D03*
X331300000Y-175725000D03*
%TD*%
D16*
%TO.C,C30*%
X274275000Y-180675000D03*
X275825000Y-180675000D03*
%TD*%
D13*
%TO.C,D52*%
X208150000Y-180325000D03*
X205950000Y-180325000D03*
%TD*%
D11*
%TO.C,R104*%
X153050000Y-177550000D03*
X153050000Y-175900000D03*
%TD*%
D15*
%TO.C,C9*%
X357650000Y-177625000D03*
X356100000Y-177625000D03*
%TD*%
D12*
%TO.C,R83*%
X185225000Y-174800000D03*
X183575000Y-174800000D03*
%TD*%
D10*
%TO.C,R40*%
X274175000Y-182800000D03*
X275825000Y-182800000D03*
%TD*%
D19*
%TO.C,U2*%
X79800000Y-175540000D03*
X79800000Y-176810000D03*
X79800000Y-178080000D03*
X79800000Y-179350000D03*
X79800000Y-180620000D03*
X79800000Y-181890000D03*
X79800000Y-183160000D03*
X79800000Y-184430000D03*
X79800000Y-185700000D03*
X79800000Y-186970000D03*
X79800000Y-188240000D03*
X79800000Y-189510000D03*
X89100000Y-189510000D03*
X89100000Y-188240000D03*
X89100000Y-186970000D03*
X89100000Y-185700000D03*
X89100000Y-184430000D03*
X89100000Y-183160000D03*
X89100000Y-181890000D03*
X89100000Y-180620000D03*
X89100000Y-179350000D03*
X89100000Y-178080000D03*
X89100000Y-176810000D03*
X89100000Y-175540000D03*
%TD*%
D10*
%TO.C,R87*%
X180525000Y-174800000D03*
X182175000Y-174800000D03*
%TD*%
%TO.C,R91*%
X184975000Y-178050000D03*
X186625000Y-178050000D03*
%TD*%
D17*
%TO.C,D34*%
X332950000Y-173925000D03*
X335150000Y-173925000D03*
%TD*%
D20*
%TO.C,D53*%
X188600000Y-177725000D03*
X188600000Y-179925000D03*
%TD*%
D16*
%TO.C,C33*%
X306400000Y-178600000D03*
X307950000Y-178600000D03*
%TD*%
D21*
%TO.C,U11*%
X297825000Y-172515000D03*
X297825000Y-173785000D03*
X297825000Y-175055000D03*
X297825000Y-176325000D03*
X297825000Y-177595000D03*
X297825000Y-178865000D03*
X297825000Y-180135000D03*
X302775000Y-180135000D03*
X302775000Y-178865000D03*
X302775000Y-177595000D03*
X302775000Y-176325000D03*
X302775000Y-175055000D03*
X302775000Y-173785000D03*
X302775000Y-172515000D03*
%TD*%
D22*
%TO.C,C41*%
X185050000Y-181475000D03*
X185050000Y-179925000D03*
%TD*%
D21*
%TO.C,U15*%
X194300000Y-173650000D03*
X194300000Y-174920000D03*
X194300000Y-176190000D03*
X194300000Y-177460000D03*
X194300000Y-178730000D03*
X194300000Y-180000000D03*
X194300000Y-181270000D03*
X199250000Y-181270000D03*
X199250000Y-180000000D03*
X199250000Y-178730000D03*
X199250000Y-177460000D03*
X199250000Y-176190000D03*
X199250000Y-174920000D03*
X199250000Y-173650000D03*
%TD*%
D11*
%TO.C,R121*%
X253775000Y-178750000D03*
X253775000Y-177100000D03*
%TD*%
%TO.C,R82*%
X204400000Y-189050000D03*
X204400000Y-187400000D03*
%TD*%
D12*
%TO.C,R98*%
X207875000Y-178475000D03*
X206225000Y-178475000D03*
%TD*%
D10*
%TO.C,R33*%
X212450000Y-195500000D03*
X214100000Y-195500000D03*
%TD*%
D23*
%TO.C,C3*%
X89600000Y-173325000D03*
X91500000Y-173325000D03*
%TD*%
D18*
%TO.C,C34*%
X277825000Y-191225000D03*
X277825000Y-193125000D03*
%TD*%
D15*
%TO.C,C43*%
X183100000Y-176475000D03*
X181550000Y-176475000D03*
%TD*%
D10*
%TO.C,R127*%
X264000000Y-172925000D03*
X265650000Y-172925000D03*
%TD*%
D17*
%TO.C,D35*%
X329425000Y-173900000D03*
X331625000Y-173900000D03*
%TD*%
D10*
%TO.C,R4*%
X333300000Y-177325000D03*
X334950000Y-177325000D03*
%TD*%
%TO.C,R34*%
X77800000Y-198175000D03*
X79450000Y-198175000D03*
%TD*%
D22*
%TO.C,C32*%
X276125000Y-173435000D03*
X276125000Y-171885000D03*
%TD*%
D10*
%TO.C,R32*%
X77900000Y-191825000D03*
X79550000Y-191825000D03*
%TD*%
D24*
%TO.C,C29*%
X308375000Y-176775000D03*
X306475000Y-176775000D03*
%TD*%
D25*
%TO.C,Q2*%
X252175000Y-176262500D03*
X250275000Y-176262500D03*
X251225000Y-178537500D03*
%TD*%
D26*
%TO.C,U10*%
X275405000Y-186125000D03*
X274135000Y-186125000D03*
X272865000Y-186125000D03*
X271595000Y-186125000D03*
X271595000Y-191075000D03*
X272865000Y-191075000D03*
X274135000Y-191075000D03*
X275405000Y-191075000D03*
%TD*%
D11*
%TO.C,R42*%
X277325000Y-187225000D03*
X277325000Y-185575000D03*
%TD*%
%TO.C,R89*%
X190575000Y-180475000D03*
X190575000Y-178825000D03*
%TD*%
%TO.C,R80*%
X180350000Y-181575000D03*
X180350000Y-179925000D03*
%TD*%
D22*
%TO.C,C45*%
X181950000Y-181500000D03*
X181950000Y-179950000D03*
%TD*%
D11*
%TO.C,R39*%
X290450000Y-175000000D03*
X290450000Y-173350000D03*
%TD*%
D14*
%TO.C,R85*%
X183500000Y-179900000D03*
X183500000Y-181550000D03*
%TD*%
D16*
%TO.C,C31*%
X292075000Y-173275000D03*
X293625000Y-173275000D03*
%TD*%
D20*
%TO.C,D1*%
X143100000Y-192900000D03*
X143100000Y-195100000D03*
%TD*%
D24*
%TO.C,C26*%
X214425000Y-197300000D03*
X212525000Y-197300000D03*
%TD*%
D18*
%TO.C,C35*%
X271100000Y-180875000D03*
X271100000Y-182775000D03*
%TD*%
M02*
