%TF.GenerationSoftware,KiCad,Pcbnew,7.0.9*%
%TF.CreationDate,2023-12-31T17:34:02-06:00*%
%TF.ProjectId,AnalogSequencerFaceplate,416e616c-6f67-4536-9571-75656e636572,rev?*%
%TF.SameCoordinates,Original*%
%TF.FileFunction,Soldermask,Bot*%
%TF.FilePolarity,Negative*%
%FSLAX46Y46*%
G04 Gerber Fmt 4.6, Leading zero omitted, Abs format (unit mm)*
G04 Created by KiCad (PCBNEW 7.0.9) date 2023-12-31 17:34:02*
%MOMM*%
%LPD*%
G01*
G04 APERTURE LIST*
G04 Aperture macros list*
%AMRoundRect*
0 Rectangle with rounded corners*
0 $1 Rounding radius*
0 $2 $3 $4 $5 $6 $7 $8 $9 X,Y pos of 4 corners*
0 Add a 4 corners polygon primitive as box body*
4,1,4,$2,$3,$4,$5,$6,$7,$8,$9,$2,$3,0*
0 Add four circle primitives for the rounded corners*
1,1,$1+$1,$2,$3*
1,1,$1+$1,$4,$5*
1,1,$1+$1,$6,$7*
1,1,$1+$1,$8,$9*
0 Add four rect primitives between the rounded corners*
20,1,$1+$1,$2,$3,$4,$5,0*
20,1,$1+$1,$4,$5,$6,$7,0*
20,1,$1+$1,$6,$7,$8,$9,0*
20,1,$1+$1,$8,$9,$2,$3,0*%
G04 Aperture macros list end*
%ADD10R,1.800000X1.800000*%
%ADD11C,1.800000*%
%ADD12O,3.200000X1.800000*%
%ADD13RoundRect,0.750000X0.750000X-1.250000X0.750000X1.250000X-0.750000X1.250000X-0.750000X-1.250000X0*%
%ADD14C,2.000000*%
%ADD15C,2.400000*%
%ADD16O,1.750000X3.700000*%
%ADD17O,1.750000X2.500000*%
%ADD18O,3.700000X1.400000*%
%ADD19C,1.700000*%
%ADD20C,3.400000*%
%ADD21O,3.700000X1.750000*%
%ADD22O,2.500000X1.750000*%
%ADD23O,1.400000X3.700000*%
G04 APERTURE END LIST*
D10*
%TO.C,D45*%
X73775000Y-181500000D03*
D11*
X76315000Y-181500000D03*
%TD*%
D12*
%TO.C,SW2*%
X145100000Y-190270000D03*
X145100000Y-185500000D03*
X145100000Y-180800000D03*
X149900000Y-190200000D03*
X149900000Y-185500000D03*
X149900000Y-180800000D03*
%TD*%
D10*
%TO.C,RV7*%
X285000000Y-193500000D03*
D11*
X287500000Y-193500000D03*
X290000000Y-193500000D03*
D13*
X283100000Y-186500000D03*
X291900000Y-186500000D03*
%TD*%
D10*
%TO.C,RV2*%
X215000000Y-193500000D03*
D11*
X217500000Y-193500000D03*
X220000000Y-193500000D03*
D13*
X213100000Y-186500000D03*
X221900000Y-186500000D03*
%TD*%
D14*
%TO.C,SW23*%
X159500000Y-184250000D03*
X166000000Y-184250000D03*
X159500000Y-188750000D03*
X166000000Y-188750000D03*
%TD*%
D15*
%TO.C,SW3*%
X94135000Y-182653000D03*
X96972000Y-177722000D03*
X101903000Y-174885000D03*
X107597000Y-174885000D03*
X112528000Y-177722000D03*
X115365000Y-182653000D03*
X115365000Y-188347000D03*
X112528000Y-193278000D03*
X107597000Y-196115000D03*
X101903000Y-196115000D03*
X96972000Y-193278000D03*
X94135000Y-188347000D03*
X101922000Y-182672000D03*
%TD*%
D10*
%TO.C,D44*%
X73825000Y-174500000D03*
D11*
X76365000Y-174500000D03*
%TD*%
D16*
%TO.C,J3*%
X352800000Y-186250000D03*
D17*
X362200000Y-186250000D03*
D18*
X357500000Y-181350000D03*
X357500000Y-189550000D03*
%TD*%
D12*
%TO.C,SW24*%
X242900000Y-181730000D03*
X242900000Y-186500000D03*
X242900000Y-191200000D03*
X238100000Y-181800000D03*
X238100000Y-186500000D03*
X238100000Y-191200000D03*
%TD*%
%TO.C,SW25*%
X252500000Y-191200000D03*
X252500000Y-186500000D03*
X252500000Y-181800000D03*
%TD*%
D10*
%TO.C,D47*%
X73775000Y-195500000D03*
D11*
X76315000Y-195500000D03*
%TD*%
D16*
%TO.C,J7*%
X311800000Y-191500000D03*
D17*
X321200000Y-191500000D03*
D18*
X316500000Y-186600000D03*
X316500000Y-194800000D03*
%TD*%
D16*
%TO.C,J4*%
X339300000Y-186250000D03*
D17*
X348700000Y-186250000D03*
D18*
X344000000Y-181350000D03*
X344000000Y-189550000D03*
%TD*%
D10*
%TO.C,D64*%
X231500000Y-178000000D03*
D11*
X231500000Y-175460000D03*
%TD*%
D10*
%TO.C,D61*%
X231500000Y-197500000D03*
D11*
X231500000Y-194960000D03*
%TD*%
D16*
%TO.C,J8*%
X300800000Y-186000000D03*
D17*
X310200000Y-186000000D03*
D18*
X305500000Y-181100000D03*
X305500000Y-189300000D03*
%TD*%
D12*
%TO.C,SW26*%
X331400000Y-181600000D03*
X331400000Y-186300000D03*
X331400000Y-191000000D03*
%TD*%
D19*
%TO.C,SW1*%
X136000000Y-194650000D03*
X133500000Y-194650000D03*
D20*
X123000000Y-184400000D03*
D19*
X131000000Y-194650000D03*
D20*
X139000000Y-184400000D03*
D19*
X128500000Y-194650000D03*
X126000000Y-194650000D03*
X126000000Y-176350000D03*
X128500000Y-176350000D03*
X131000000Y-176350000D03*
X133500000Y-176350000D03*
X136000000Y-176350000D03*
%TD*%
D14*
%TO.C,SW20*%
X195500000Y-184250000D03*
X202000000Y-184250000D03*
X195500000Y-188750000D03*
X202000000Y-188750000D03*
%TD*%
D16*
%TO.C,J6*%
X311800000Y-179250000D03*
D17*
X321200000Y-179250000D03*
D18*
X316500000Y-174350000D03*
X316500000Y-182550000D03*
%TD*%
D14*
%TO.C,SW22*%
X171500000Y-184250000D03*
X178000000Y-184250000D03*
X171500000Y-188750000D03*
X178000000Y-188750000D03*
%TD*%
%TO.C,SW21*%
X183500000Y-184250000D03*
X190000000Y-184250000D03*
X183500000Y-188750000D03*
X190000000Y-188750000D03*
%TD*%
D21*
%TO.C,J1*%
X174750000Y-181825000D03*
D22*
X174750000Y-172425000D03*
D23*
X169850000Y-177125000D03*
X178050000Y-177125000D03*
%TD*%
D16*
%TO.C,J2*%
X259700000Y-192000000D03*
D17*
X269100000Y-192000000D03*
D18*
X264400000Y-187100000D03*
X264400000Y-195300000D03*
%TD*%
D16*
%TO.C,J5*%
X259700000Y-180000000D03*
D17*
X269100000Y-180000000D03*
D18*
X264400000Y-175100000D03*
X264400000Y-183300000D03*
%TD*%
D10*
%TO.C,D46*%
X73775000Y-188500000D03*
D11*
X76315000Y-188500000D03*
%TD*%
M02*
