%TF.GenerationSoftware,KiCad,Pcbnew,7.0.9*%
%TF.CreationDate,2023-12-31T17:34:01-06:00*%
%TF.ProjectId,AnalogSequencerFaceplate,416e616c-6f67-4536-9571-75656e636572,rev?*%
%TF.SameCoordinates,Original*%
%TF.FileFunction,Copper,L1,Top*%
%TF.FilePolarity,Positive*%
%FSLAX46Y46*%
G04 Gerber Fmt 4.6, Leading zero omitted, Abs format (unit mm)*
G04 Created by KiCad (PCBNEW 7.0.9) date 2023-12-31 17:34:01*
%MOMM*%
%LPD*%
G01*
G04 APERTURE LIST*
G04 Aperture macros list*
%AMRoundRect*
0 Rectangle with rounded corners*
0 $1 Rounding radius*
0 $2 $3 $4 $5 $6 $7 $8 $9 X,Y pos of 4 corners*
0 Add a 4 corners polygon primitive as box body*
4,1,4,$2,$3,$4,$5,$6,$7,$8,$9,$2,$3,0*
0 Add four circle primitives for the rounded corners*
1,1,$1+$1,$2,$3*
1,1,$1+$1,$4,$5*
1,1,$1+$1,$6,$7*
1,1,$1+$1,$8,$9*
0 Add four rect primitives between the rounded corners*
20,1,$1+$1,$2,$3,$4,$5,0*
20,1,$1+$1,$4,$5,$6,$7,0*
20,1,$1+$1,$6,$7,$8,$9,0*
20,1,$1+$1,$8,$9,$2,$3,0*%
G04 Aperture macros list end*
%TA.AperFunction,ComponentPad*%
%ADD10R,1.800000X1.800000*%
%TD*%
%TA.AperFunction,ComponentPad*%
%ADD11C,1.800000*%
%TD*%
%TA.AperFunction,SMDPad,CuDef*%
%ADD12RoundRect,0.200000X-0.200000X-0.275000X0.200000X-0.275000X0.200000X0.275000X-0.200000X0.275000X0*%
%TD*%
%TA.AperFunction,ComponentPad*%
%ADD13O,3.200000X1.800000*%
%TD*%
%TA.AperFunction,SMDPad,CuDef*%
%ADD14RoundRect,0.200000X0.275000X-0.200000X0.275000X0.200000X-0.275000X0.200000X-0.275000X-0.200000X0*%
%TD*%
%TA.AperFunction,SMDPad,CuDef*%
%ADD15RoundRect,0.200000X0.200000X0.275000X-0.200000X0.275000X-0.200000X-0.275000X0.200000X-0.275000X0*%
%TD*%
%TA.AperFunction,ComponentPad*%
%ADD16RoundRect,0.750000X0.750000X-1.250000X0.750000X1.250000X-0.750000X1.250000X-0.750000X-1.250000X0*%
%TD*%
%TA.AperFunction,SMDPad,CuDef*%
%ADD17RoundRect,0.125000X0.125000X0.125000X-0.125000X0.125000X-0.125000X-0.125000X0.125000X-0.125000X0*%
%TD*%
%TA.AperFunction,SMDPad,CuDef*%
%ADD18RoundRect,0.200000X-0.275000X0.200000X-0.275000X-0.200000X0.275000X-0.200000X0.275000X0.200000X0*%
%TD*%
%TA.AperFunction,ComponentPad*%
%ADD19C,2.000000*%
%TD*%
%TA.AperFunction,SMDPad,CuDef*%
%ADD20RoundRect,0.225000X0.225000X0.250000X-0.225000X0.250000X-0.225000X-0.250000X0.225000X-0.250000X0*%
%TD*%
%TA.AperFunction,SMDPad,CuDef*%
%ADD21RoundRect,0.225000X-0.225000X-0.250000X0.225000X-0.250000X0.225000X0.250000X-0.225000X0.250000X0*%
%TD*%
%TA.AperFunction,ComponentPad*%
%ADD22C,2.400000*%
%TD*%
%TA.AperFunction,SMDPad,CuDef*%
%ADD23RoundRect,0.125000X-0.125000X-0.125000X0.125000X-0.125000X0.125000X0.125000X-0.125000X0.125000X0*%
%TD*%
%TA.AperFunction,ComponentPad*%
%ADD24O,1.750000X3.700000*%
%TD*%
%TA.AperFunction,ComponentPad*%
%ADD25O,1.750000X2.500000*%
%TD*%
%TA.AperFunction,ComponentPad*%
%ADD26O,3.700000X1.400000*%
%TD*%
%TA.AperFunction,SMDPad,CuDef*%
%ADD27RoundRect,0.250000X-0.475000X0.250000X-0.475000X-0.250000X0.475000X-0.250000X0.475000X0.250000X0*%
%TD*%
%TA.AperFunction,SMDPad,CuDef*%
%ADD28RoundRect,0.150000X-0.875000X-0.150000X0.875000X-0.150000X0.875000X0.150000X-0.875000X0.150000X0*%
%TD*%
%TA.AperFunction,SMDPad,CuDef*%
%ADD29RoundRect,0.125000X-0.125000X0.125000X-0.125000X-0.125000X0.125000X-0.125000X0.125000X0.125000X0*%
%TD*%
%TA.AperFunction,SMDPad,CuDef*%
%ADD30RoundRect,0.150000X-0.825000X-0.150000X0.825000X-0.150000X0.825000X0.150000X-0.825000X0.150000X0*%
%TD*%
%TA.AperFunction,SMDPad,CuDef*%
%ADD31RoundRect,0.225000X0.250000X-0.225000X0.250000X0.225000X-0.250000X0.225000X-0.250000X-0.225000X0*%
%TD*%
%TA.AperFunction,SMDPad,CuDef*%
%ADD32RoundRect,0.250000X-0.250000X-0.475000X0.250000X-0.475000X0.250000X0.475000X-0.250000X0.475000X0*%
%TD*%
%TA.AperFunction,ComponentPad*%
%ADD33C,1.700000*%
%TD*%
%TA.AperFunction,ComponentPad*%
%ADD34C,3.400000*%
%TD*%
%TA.AperFunction,SMDPad,CuDef*%
%ADD35RoundRect,0.250000X0.250000X0.475000X-0.250000X0.475000X-0.250000X-0.475000X0.250000X-0.475000X0*%
%TD*%
%TA.AperFunction,SMDPad,CuDef*%
%ADD36RoundRect,0.150000X-0.150000X0.512500X-0.150000X-0.512500X0.150000X-0.512500X0.150000X0.512500X0*%
%TD*%
%TA.AperFunction,SMDPad,CuDef*%
%ADD37RoundRect,0.150000X-0.150000X0.825000X-0.150000X-0.825000X0.150000X-0.825000X0.150000X0.825000X0*%
%TD*%
%TA.AperFunction,ComponentPad*%
%ADD38O,3.700000X1.750000*%
%TD*%
%TA.AperFunction,ComponentPad*%
%ADD39O,2.500000X1.750000*%
%TD*%
%TA.AperFunction,ComponentPad*%
%ADD40O,1.400000X3.700000*%
%TD*%
G04 APERTURE END LIST*
D10*
%TO.P,D45,1,K*%
%TO.N,N/C*%
X73775000Y-181500000D03*
D11*
%TO.P,D45,2,A*%
X76315000Y-181500000D03*
%TD*%
D12*
%TO.P,R5,1*%
%TO.N,N/C*%
X349975000Y-180175000D03*
%TO.P,R5,2*%
X351625000Y-180175000D03*
%TD*%
D13*
%TO.P,SW2,1,A*%
%TO.N,N/C*%
X145100000Y-190270000D03*
%TO.P,SW2,2,B*%
X145100000Y-185500000D03*
%TO.P,SW2,3,C*%
X145100000Y-180800000D03*
%TO.P,SW2,4,A*%
X149900000Y-190200000D03*
%TO.P,SW2,5,B*%
X149900000Y-185500000D03*
%TO.P,SW2,6,C*%
X149900000Y-180800000D03*
%TD*%
D14*
%TO.P,R105,1*%
%TO.N,N/C*%
X166150000Y-192650000D03*
%TO.P,R105,2*%
X166150000Y-191000000D03*
%TD*%
D15*
%TO.P,R43,1*%
%TO.N,N/C*%
X293650000Y-174875000D03*
%TO.P,R43,2*%
X292000000Y-174875000D03*
%TD*%
%TO.P,R41,1*%
%TO.N,N/C*%
X292010000Y-176625000D03*
%TO.P,R41,2*%
X290360000Y-176625000D03*
%TD*%
%TO.P,R47,1*%
%TO.N,N/C*%
X276000000Y-195050000D03*
%TO.P,R47,2*%
X274350000Y-195050000D03*
%TD*%
D10*
%TO.P,RV7,1,1*%
%TO.N,N/C*%
X285000000Y-193500000D03*
D11*
%TO.P,RV7,2,2*%
X287500000Y-193500000D03*
%TO.P,RV7,3,3*%
X290000000Y-193500000D03*
D16*
%TO.P,RV7,MP*%
X283100000Y-186500000D03*
X291900000Y-186500000D03*
%TD*%
D17*
%TO.P,D42,1,K*%
%TO.N,N/C*%
X211100000Y-197300000D03*
%TO.P,D42,2,A*%
X208900000Y-197300000D03*
%TD*%
D18*
%TO.P,R46,1*%
%TO.N,N/C*%
X277950000Y-171850000D03*
%TO.P,R46,2*%
X277950000Y-173500000D03*
%TD*%
D14*
%TO.P,R44,1*%
%TO.N,N/C*%
X274000000Y-173450000D03*
%TO.P,R44,2*%
X274000000Y-171800000D03*
%TD*%
D18*
%TO.P,R107,1*%
%TO.N,N/C*%
X137950000Y-172800000D03*
%TO.P,R107,2*%
X137950000Y-174450000D03*
%TD*%
%TO.P,R122,1*%
%TO.N,N/C*%
X248650000Y-176000000D03*
%TO.P,R122,2*%
X248650000Y-177650000D03*
%TD*%
D10*
%TO.P,RV2,1,1*%
%TO.N,N/C*%
X215000000Y-193500000D03*
D11*
%TO.P,RV2,2,2*%
X217500000Y-193500000D03*
%TO.P,RV2,3,3*%
X220000000Y-193500000D03*
D16*
%TO.P,RV2,MP*%
X213100000Y-186500000D03*
X221900000Y-186500000D03*
%TD*%
D12*
%TO.P,R99,1*%
%TO.N,N/C*%
X186950000Y-181525000D03*
%TO.P,R99,2*%
X188600000Y-181525000D03*
%TD*%
D19*
%TO.P,SW23,1,1*%
%TO.N,N/C*%
X159500000Y-184250000D03*
X166000000Y-184250000D03*
%TO.P,SW23,2,2*%
X159500000Y-188750000D03*
X166000000Y-188750000D03*
%TD*%
D20*
%TO.P,C7,1*%
%TO.N,N/C*%
X338000000Y-177325000D03*
%TO.P,C7,2*%
X336450000Y-177325000D03*
%TD*%
D21*
%TO.P,C47,1*%
%TO.N,N/C*%
X184950000Y-176450000D03*
%TO.P,C47,2*%
X186500000Y-176450000D03*
%TD*%
D12*
%TO.P,R3,1*%
%TO.N,N/C*%
X334400000Y-175725000D03*
%TO.P,R3,2*%
X336050000Y-175725000D03*
%TD*%
%TO.P,R31,1*%
%TO.N,N/C*%
X79100000Y-173325000D03*
%TO.P,R31,2*%
X80750000Y-173325000D03*
%TD*%
D22*
%TO.P,SW3,1,1*%
%TO.N,N/C*%
X94135000Y-182653000D03*
%TO.P,SW3,2,2*%
X96972000Y-177722000D03*
%TO.P,SW3,3,3*%
X101903000Y-174885000D03*
%TO.P,SW3,4,4*%
X107597000Y-174885000D03*
%TO.P,SW3,5,5*%
X112528000Y-177722000D03*
%TO.P,SW3,6,6*%
X115365000Y-182653000D03*
%TO.P,SW3,7,7*%
X115365000Y-188347000D03*
%TO.P,SW3,8,8*%
X112528000Y-193278000D03*
%TO.P,SW3,9,9*%
X107597000Y-196115000D03*
%TO.P,SW3,10,10*%
X101903000Y-196115000D03*
%TO.P,SW3,11,11*%
X96972000Y-193278000D03*
%TO.P,SW3,12,12*%
X94135000Y-188347000D03*
%TO.P,SW3,13,13*%
X101922000Y-182672000D03*
%TD*%
D23*
%TO.P,D56,1,K*%
%TO.N,N/C*%
X201950000Y-176625000D03*
%TO.P,D56,2,A*%
X204150000Y-176625000D03*
%TD*%
D10*
%TO.P,D44,1,K*%
%TO.N,N/C*%
X73825000Y-174500000D03*
D11*
%TO.P,D44,2,A*%
X76365000Y-174500000D03*
%TD*%
D24*
%TO.P,J3,S*%
%TO.N,N/C*%
X352800000Y-186250000D03*
D25*
X362200000Y-186250000D03*
D26*
%TO.P,J3,T*%
X357500000Y-181350000D03*
X357500000Y-189550000D03*
%TD*%
D12*
%TO.P,R6,1*%
%TO.N,N/C*%
X351300000Y-177650000D03*
%TO.P,R6,2*%
X352950000Y-177650000D03*
%TD*%
D13*
%TO.P,SW24,1,A*%
%TO.N,N/C*%
X242900000Y-181730000D03*
%TO.P,SW24,2,B*%
X242900000Y-186500000D03*
%TO.P,SW24,3,C*%
X242900000Y-191200000D03*
%TO.P,SW24,4,A*%
X238100000Y-181800000D03*
%TO.P,SW24,5,B*%
X238100000Y-186500000D03*
%TO.P,SW24,6,C*%
X238100000Y-191200000D03*
%TD*%
D27*
%TO.P,C28,1*%
%TO.N,N/C*%
X294000000Y-176550000D03*
%TO.P,C28,2*%
X294000000Y-178450000D03*
%TD*%
D15*
%TO.P,R45,1*%
%TO.N,N/C*%
X273000000Y-195050000D03*
%TO.P,R45,2*%
X271350000Y-195050000D03*
%TD*%
D20*
%TO.P,C8,1*%
%TO.N,N/C*%
X354625000Y-179325000D03*
%TO.P,C8,2*%
X353075000Y-179325000D03*
%TD*%
D18*
%TO.P,R123,1*%
%TO.N,N/C*%
X231600000Y-190400000D03*
%TO.P,R123,2*%
X231600000Y-192050000D03*
%TD*%
D23*
%TO.P,D55,1,K*%
%TO.N,N/C*%
X201925000Y-174575000D03*
%TO.P,D55,2,A*%
X204125000Y-174575000D03*
%TD*%
D15*
%TO.P,R2,1*%
%TO.N,N/C*%
X332950000Y-175725000D03*
%TO.P,R2,2*%
X331300000Y-175725000D03*
%TD*%
D21*
%TO.P,C30,1*%
%TO.N,N/C*%
X274275000Y-180675000D03*
%TO.P,C30,2*%
X275825000Y-180675000D03*
%TD*%
D17*
%TO.P,D52,1,K*%
%TO.N,N/C*%
X208150000Y-180325000D03*
%TO.P,D52,2,A*%
X205950000Y-180325000D03*
%TD*%
D14*
%TO.P,R104,1*%
%TO.N,N/C*%
X153050000Y-177550000D03*
%TO.P,R104,2*%
X153050000Y-175900000D03*
%TD*%
D13*
%TO.P,SW25,1,A*%
%TO.N,N/C*%
X252500000Y-191200000D03*
%TO.P,SW25,2,B*%
X252500000Y-186500000D03*
%TO.P,SW25,3,C*%
X252500000Y-181800000D03*
%TD*%
D20*
%TO.P,C9,1*%
%TO.N,N/C*%
X357650000Y-177625000D03*
%TO.P,C9,2*%
X356100000Y-177625000D03*
%TD*%
D15*
%TO.P,R83,1*%
%TO.N,N/C*%
X185225000Y-174800000D03*
%TO.P,R83,2*%
X183575000Y-174800000D03*
%TD*%
D12*
%TO.P,R40,1*%
%TO.N,N/C*%
X274175000Y-182800000D03*
%TO.P,R40,2*%
X275825000Y-182800000D03*
%TD*%
D28*
%TO.P,U2,1,EL*%
%TO.N,N/C*%
X79800000Y-175540000D03*
%TO.P,U2,2,A0*%
X79800000Y-176810000D03*
%TO.P,U2,3,A1*%
X79800000Y-178080000D03*
%TO.P,U2,4,Q7*%
X79800000Y-179350000D03*
%TO.P,U2,5,Q6*%
X79800000Y-180620000D03*
%TO.P,U2,6,Q5*%
X79800000Y-181890000D03*
%TO.P,U2,7,Q4*%
X79800000Y-183160000D03*
%TO.P,U2,8,Q3*%
X79800000Y-184430000D03*
%TO.P,U2,9,Q1*%
X79800000Y-185700000D03*
%TO.P,U2,10,Q2*%
X79800000Y-186970000D03*
%TO.P,U2,11,Q0*%
X79800000Y-188240000D03*
%TO.P,U2,12,Vss*%
X79800000Y-189510000D03*
%TO.P,U2,13,Q13*%
X89100000Y-189510000D03*
%TO.P,U2,14,Q12*%
X89100000Y-188240000D03*
%TO.P,U2,15,Q15*%
X89100000Y-186970000D03*
%TO.P,U2,16,Q14*%
X89100000Y-185700000D03*
%TO.P,U2,17,Q9*%
X89100000Y-184430000D03*
%TO.P,U2,18,Q8*%
X89100000Y-183160000D03*
%TO.P,U2,19,Q11*%
X89100000Y-181890000D03*
%TO.P,U2,20,Q10*%
X89100000Y-180620000D03*
%TO.P,U2,21,A2*%
X89100000Y-179350000D03*
%TO.P,U2,22,A3*%
X89100000Y-178080000D03*
%TO.P,U2,23,~{EN}*%
X89100000Y-176810000D03*
%TO.P,U2,24,Vdd*%
X89100000Y-175540000D03*
%TD*%
D10*
%TO.P,D47,1,K*%
%TO.N,N/C*%
X73775000Y-195500000D03*
D11*
%TO.P,D47,2,A*%
X76315000Y-195500000D03*
%TD*%
D12*
%TO.P,R87,1*%
%TO.N,N/C*%
X180525000Y-174800000D03*
%TO.P,R87,2*%
X182175000Y-174800000D03*
%TD*%
%TO.P,R91,1*%
%TO.N,N/C*%
X184975000Y-178050000D03*
%TO.P,R91,2*%
X186625000Y-178050000D03*
%TD*%
D24*
%TO.P,J7,S*%
%TO.N,N/C*%
X311800000Y-191500000D03*
D25*
X321200000Y-191500000D03*
D26*
%TO.P,J7,T*%
X316500000Y-186600000D03*
X316500000Y-194800000D03*
%TD*%
D23*
%TO.P,D34,1,K*%
%TO.N,N/C*%
X332950000Y-173925000D03*
%TO.P,D34,2,A*%
X335150000Y-173925000D03*
%TD*%
D24*
%TO.P,J4,S*%
%TO.N,N/C*%
X339300000Y-186250000D03*
D25*
X348700000Y-186250000D03*
D26*
%TO.P,J4,T*%
X344000000Y-181350000D03*
X344000000Y-189550000D03*
%TD*%
D29*
%TO.P,D53,1,K*%
%TO.N,N/C*%
X188600000Y-177725000D03*
%TO.P,D53,2,A*%
X188600000Y-179925000D03*
%TD*%
D21*
%TO.P,C33,1*%
%TO.N,N/C*%
X306400000Y-178600000D03*
%TO.P,C33,2*%
X307950000Y-178600000D03*
%TD*%
D10*
%TO.P,D64,1,K*%
%TO.N,N/C*%
X231500000Y-178000000D03*
D11*
%TO.P,D64,2,A*%
X231500000Y-175460000D03*
%TD*%
D30*
%TO.P,U11,1*%
%TO.N,N/C*%
X297825000Y-172515000D03*
%TO.P,U11,2,-*%
X297825000Y-173785000D03*
%TO.P,U11,3,+*%
X297825000Y-175055000D03*
%TO.P,U11,4,V+*%
X297825000Y-176325000D03*
%TO.P,U11,5,+*%
X297825000Y-177595000D03*
%TO.P,U11,6,-*%
X297825000Y-178865000D03*
%TO.P,U11,7*%
X297825000Y-180135000D03*
%TO.P,U11,8*%
X302775000Y-180135000D03*
%TO.P,U11,9,-*%
X302775000Y-178865000D03*
%TO.P,U11,10,+*%
X302775000Y-177595000D03*
%TO.P,U11,11,V-*%
X302775000Y-176325000D03*
%TO.P,U11,12,+*%
X302775000Y-175055000D03*
%TO.P,U11,13,-*%
X302775000Y-173785000D03*
%TO.P,U11,14*%
X302775000Y-172515000D03*
%TD*%
D31*
%TO.P,C41,1*%
%TO.N,N/C*%
X185050000Y-181475000D03*
%TO.P,C41,2*%
X185050000Y-179925000D03*
%TD*%
D10*
%TO.P,D61,1,K*%
%TO.N,N/C*%
X231500000Y-197500000D03*
D11*
%TO.P,D61,2,A*%
X231500000Y-194960000D03*
%TD*%
D30*
%TO.P,U15,1*%
%TO.N,N/C*%
X194300000Y-173650000D03*
%TO.P,U15,2*%
X194300000Y-174920000D03*
%TO.P,U15,3*%
X194300000Y-176190000D03*
%TO.P,U15,4*%
X194300000Y-177460000D03*
%TO.P,U15,5*%
X194300000Y-178730000D03*
%TO.P,U15,6*%
X194300000Y-180000000D03*
%TO.P,U15,7,VSS*%
X194300000Y-181270000D03*
%TO.P,U15,8*%
X199250000Y-181270000D03*
%TO.P,U15,9*%
X199250000Y-180000000D03*
%TO.P,U15,10*%
X199250000Y-178730000D03*
%TO.P,U15,11*%
X199250000Y-177460000D03*
%TO.P,U15,12*%
X199250000Y-176190000D03*
%TO.P,U15,13*%
X199250000Y-174920000D03*
%TO.P,U15,14,VDD*%
X199250000Y-173650000D03*
%TD*%
D14*
%TO.P,R121,1*%
%TO.N,N/C*%
X253775000Y-178750000D03*
%TO.P,R121,2*%
X253775000Y-177100000D03*
%TD*%
%TO.P,R82,1*%
%TO.N,N/C*%
X204400000Y-189050000D03*
%TO.P,R82,2*%
X204400000Y-187400000D03*
%TD*%
D15*
%TO.P,R98,1*%
%TO.N,N/C*%
X207875000Y-178475000D03*
%TO.P,R98,2*%
X206225000Y-178475000D03*
%TD*%
D12*
%TO.P,R33,1*%
%TO.N,N/C*%
X212450000Y-195500000D03*
%TO.P,R33,2*%
X214100000Y-195500000D03*
%TD*%
D24*
%TO.P,J8,S*%
%TO.N,N/C*%
X300800000Y-186000000D03*
D25*
X310200000Y-186000000D03*
D26*
%TO.P,J8,T*%
X305500000Y-181100000D03*
X305500000Y-189300000D03*
%TD*%
D32*
%TO.P,C3,1*%
%TO.N,N/C*%
X89600000Y-173325000D03*
%TO.P,C3,2*%
X91500000Y-173325000D03*
%TD*%
D27*
%TO.P,C34,1*%
%TO.N,N/C*%
X277825000Y-191225000D03*
%TO.P,C34,2*%
X277825000Y-193125000D03*
%TD*%
D20*
%TO.P,C43,1*%
%TO.N,N/C*%
X183100000Y-176475000D03*
%TO.P,C43,2*%
X181550000Y-176475000D03*
%TD*%
D12*
%TO.P,R127,1*%
%TO.N,N/C*%
X264000000Y-172925000D03*
%TO.P,R127,2*%
X265650000Y-172925000D03*
%TD*%
D23*
%TO.P,D35,1,K*%
%TO.N,N/C*%
X329425000Y-173900000D03*
%TO.P,D35,2,A*%
X331625000Y-173900000D03*
%TD*%
D12*
%TO.P,R4,1*%
%TO.N,N/C*%
X333300000Y-177325000D03*
%TO.P,R4,2*%
X334950000Y-177325000D03*
%TD*%
%TO.P,R34,1*%
%TO.N,N/C*%
X77800000Y-198175000D03*
%TO.P,R34,2*%
X79450000Y-198175000D03*
%TD*%
D31*
%TO.P,C32,1*%
%TO.N,N/C*%
X276125000Y-173435000D03*
%TO.P,C32,2*%
X276125000Y-171885000D03*
%TD*%
D13*
%TO.P,SW26,1,A*%
%TO.N,N/C*%
X331400000Y-181600000D03*
%TO.P,SW26,2,B*%
X331400000Y-186300000D03*
%TO.P,SW26,3,C*%
X331400000Y-191000000D03*
%TD*%
D33*
%TO.P,SW1,1,1*%
%TO.N,N/C*%
X136000000Y-194650000D03*
%TO.P,SW1,2,2*%
X133500000Y-194650000D03*
D34*
%TO.P,SW1,3,3*%
X123000000Y-184400000D03*
D33*
X131000000Y-194650000D03*
D34*
X139000000Y-184400000D03*
D33*
%TO.P,SW1,4,4*%
X128500000Y-194650000D03*
%TO.P,SW1,5,5*%
X126000000Y-194650000D03*
%TO.P,SW1,6*%
X126000000Y-176350000D03*
%TO.P,SW1,7*%
X128500000Y-176350000D03*
%TO.P,SW1,8*%
X131000000Y-176350000D03*
%TO.P,SW1,9*%
X133500000Y-176350000D03*
%TO.P,SW1,10*%
X136000000Y-176350000D03*
%TD*%
D19*
%TO.P,SW20,1,1*%
%TO.N,N/C*%
X195500000Y-184250000D03*
X202000000Y-184250000D03*
%TO.P,SW20,2,2*%
X195500000Y-188750000D03*
X202000000Y-188750000D03*
%TD*%
D24*
%TO.P,J6,S*%
%TO.N,N/C*%
X311800000Y-179250000D03*
D25*
X321200000Y-179250000D03*
D26*
%TO.P,J6,T*%
X316500000Y-174350000D03*
X316500000Y-182550000D03*
%TD*%
D19*
%TO.P,SW22,1,1*%
%TO.N,N/C*%
X171500000Y-184250000D03*
X178000000Y-184250000D03*
%TO.P,SW22,2,2*%
X171500000Y-188750000D03*
X178000000Y-188750000D03*
%TD*%
%TO.P,SW21,1,1*%
%TO.N,N/C*%
X183500000Y-184250000D03*
X190000000Y-184250000D03*
%TO.P,SW21,2,2*%
X183500000Y-188750000D03*
X190000000Y-188750000D03*
%TD*%
D12*
%TO.P,R32,1*%
%TO.N,N/C*%
X77900000Y-191825000D03*
%TO.P,R32,2*%
X79550000Y-191825000D03*
%TD*%
D35*
%TO.P,C29,1*%
%TO.N,N/C*%
X308375000Y-176775000D03*
%TO.P,C29,2*%
X306475000Y-176775000D03*
%TD*%
D36*
%TO.P,Q2,1,E*%
%TO.N,N/C*%
X252175000Y-176262500D03*
%TO.P,Q2,2,B*%
X250275000Y-176262500D03*
%TO.P,Q2,3,C*%
X251225000Y-178537500D03*
%TD*%
D37*
%TO.P,U10,1*%
%TO.N,N/C*%
X275405000Y-186125000D03*
%TO.P,U10,2,-*%
X274135000Y-186125000D03*
%TO.P,U10,3,+*%
X272865000Y-186125000D03*
%TO.P,U10,4,V-*%
X271595000Y-186125000D03*
%TO.P,U10,5,+*%
X271595000Y-191075000D03*
%TO.P,U10,6,-*%
X272865000Y-191075000D03*
%TO.P,U10,7*%
X274135000Y-191075000D03*
%TO.P,U10,8,V+*%
X275405000Y-191075000D03*
%TD*%
D14*
%TO.P,R42,1*%
%TO.N,N/C*%
X277325000Y-187225000D03*
%TO.P,R42,2*%
X277325000Y-185575000D03*
%TD*%
%TO.P,R89,1*%
%TO.N,N/C*%
X190575000Y-180475000D03*
%TO.P,R89,2*%
X190575000Y-178825000D03*
%TD*%
D38*
%TO.P,J1,S*%
%TO.N,N/C*%
X174750000Y-181825000D03*
D39*
X174750000Y-172425000D03*
D40*
%TO.P,J1,T*%
X169850000Y-177125000D03*
X178050000Y-177125000D03*
%TD*%
D24*
%TO.P,J2,S*%
%TO.N,N/C*%
X259700000Y-192000000D03*
D25*
X269100000Y-192000000D03*
D26*
%TO.P,J2,T*%
X264400000Y-187100000D03*
X264400000Y-195300000D03*
%TD*%
D14*
%TO.P,R80,1*%
%TO.N,N/C*%
X180350000Y-181575000D03*
%TO.P,R80,2*%
X180350000Y-179925000D03*
%TD*%
D31*
%TO.P,C45,1*%
%TO.N,N/C*%
X181950000Y-181500000D03*
%TO.P,C45,2*%
X181950000Y-179950000D03*
%TD*%
D14*
%TO.P,R39,1*%
%TO.N,N/C*%
X290450000Y-175000000D03*
%TO.P,R39,2*%
X290450000Y-173350000D03*
%TD*%
D24*
%TO.P,J5,S*%
%TO.N,N/C*%
X259700000Y-180000000D03*
D25*
X269100000Y-180000000D03*
D26*
%TO.P,J5,T*%
X264400000Y-175100000D03*
X264400000Y-183300000D03*
%TD*%
D18*
%TO.P,R85,1*%
%TO.N,N/C*%
X183500000Y-179900000D03*
%TO.P,R85,2*%
X183500000Y-181550000D03*
%TD*%
D21*
%TO.P,C31,1*%
%TO.N,N/C*%
X292075000Y-173275000D03*
%TO.P,C31,2*%
X293625000Y-173275000D03*
%TD*%
D29*
%TO.P,D1,1,K*%
%TO.N,N/C*%
X143100000Y-192900000D03*
%TO.P,D1,2,A*%
X143100000Y-195100000D03*
%TD*%
D35*
%TO.P,C26,1*%
%TO.N,N/C*%
X214425000Y-197300000D03*
%TO.P,C26,2*%
X212525000Y-197300000D03*
%TD*%
D10*
%TO.P,D46,1,K*%
%TO.N,N/C*%
X73775000Y-188500000D03*
D11*
%TO.P,D46,2,A*%
X76315000Y-188500000D03*
%TD*%
D27*
%TO.P,C35,1*%
%TO.N,N/C*%
X271100000Y-180875000D03*
%TO.P,C35,2*%
X271100000Y-182775000D03*
%TD*%
M02*
