%TF.GenerationSoftware,KiCad,Pcbnew,7.0.9*%
%TF.CreationDate,2024-01-02T10:04:44-06:00*%
%TF.ProjectId,AnalogSequencerFaceplate,416e616c-6f67-4536-9571-75656e636572,rev?*%
%TF.SameCoordinates,Original*%
%TF.FileFunction,Copper,L1,Top*%
%TF.FilePolarity,Positive*%
%FSLAX46Y46*%
G04 Gerber Fmt 4.6, Leading zero omitted, Abs format (unit mm)*
G04 Created by KiCad (PCBNEW 7.0.9) date 2024-01-02 10:04:44*
%MOMM*%
%LPD*%
G01*
G04 APERTURE LIST*
%TA.AperFunction,NonConductor*%
%ADD10C,0.200000*%
%TD*%
%TA.AperFunction,NonConductor*%
%ADD11C,5.000000*%
%TD*%
%TA.AperFunction,NonConductor*%
%ADD12C,6.000000*%
%TD*%
%TA.AperFunction,NonConductor*%
%ADD13C,4.000000*%
%TD*%
G04 APERTURE END LIST*
D10*
X114600000Y-185500000D02*
G75*
G03*
X114600000Y-185500000I-9800000J0D01*
G01*
D11*
X117900000Y-185500000D02*
G75*
G03*
X117900000Y-185500000I-13100000J0D01*
G01*
D12*
X140000000Y-185500000D02*
G75*
G03*
X140000000Y-185500000I-9000000J0D01*
G01*
D13*
X225600000Y-186600000D02*
G75*
G03*
X225600000Y-186600000I-8000000J0D01*
G01*
X295600000Y-186500000D02*
G75*
G03*
X295600000Y-186500000I-8000000J0D01*
G01*
X385500000Y-162500000D02*
G75*
G03*
X385500000Y-162500000I-8000000J0D01*
G01*
X365500000Y-118500000D02*
G75*
G03*
X365500000Y-118500000I-8000000J0D01*
G01*
X305500000Y-140500000D02*
G75*
G03*
X305500000Y-140500000I-8000000J0D01*
G01*
X225500000Y-162500000D02*
G75*
G03*
X225500000Y-162500000I-8000000J0D01*
G01*
X205500000Y-140500000D02*
G75*
G03*
X205500000Y-140500000I-8000000J0D01*
G01*
X185500000Y-118500000D02*
G75*
G03*
X185500000Y-118500000I-8000000J0D01*
G01*
X205500000Y-162500000D02*
G75*
G03*
X205500000Y-162500000I-8000000J0D01*
G01*
X277500000Y-126500000D02*
X277500000Y-154500000D01*
X165500000Y-118500000D02*
G75*
G03*
X165500000Y-118500000I-8000000J0D01*
G01*
X217500000Y-126500000D02*
X217500000Y-154500000D01*
X77500000Y-126500000D02*
X77500000Y-154500000D01*
X325500000Y-162500000D02*
G75*
G03*
X325500000Y-162500000I-8000000J0D01*
G01*
X369500000Y-140500000D02*
X85500000Y-140500000D01*
X305500000Y-118500000D02*
G75*
G03*
X305500000Y-118500000I-8000000J0D01*
G01*
X325500000Y-140500000D02*
G75*
G03*
X325500000Y-140500000I-8000000J0D01*
G01*
X357500000Y-126500000D02*
X357500000Y-154500000D01*
X225500000Y-118500000D02*
G75*
G03*
X225500000Y-118500000I-8000000J0D01*
G01*
X105500000Y-118500000D02*
G75*
G03*
X105500000Y-118500000I-8000000J0D01*
G01*
X337500000Y-126500000D02*
X337500000Y-154500000D01*
X297500000Y-126500000D02*
X297500000Y-154500000D01*
X177500000Y-126500000D02*
X177500000Y-154500000D01*
X225500000Y-140500000D02*
G75*
G03*
X225500000Y-140500000I-8000000J0D01*
G01*
X137500000Y-126500000D02*
X137500000Y-154500000D01*
X285500000Y-162500000D02*
G75*
G03*
X285500000Y-162500000I-8000000J0D01*
G01*
X105500000Y-140500000D02*
G75*
G03*
X105500000Y-140500000I-8000000J0D01*
G01*
X125500000Y-162500000D02*
G75*
G03*
X125500000Y-162500000I-8000000J0D01*
G01*
X237500000Y-126500000D02*
X237500000Y-154500000D01*
X185500000Y-162500000D02*
G75*
G03*
X185500000Y-162500000I-8000000J0D01*
G01*
X345500000Y-118500000D02*
G75*
G03*
X345500000Y-118500000I-8000000J0D01*
G01*
X165500000Y-162500000D02*
G75*
G03*
X165500000Y-162500000I-8000000J0D01*
G01*
X345500000Y-140500000D02*
G75*
G03*
X345500000Y-140500000I-8000000J0D01*
G01*
X97500000Y-126500000D02*
X97500000Y-154500000D01*
X285500000Y-118500000D02*
G75*
G03*
X285500000Y-118500000I-8000000J0D01*
G01*
X85500000Y-118500000D02*
G75*
G03*
X85500000Y-118500000I-8000000J0D01*
G01*
X85500000Y-140500000D02*
G75*
G03*
X85500000Y-140500000I-8000000J0D01*
G01*
X185500000Y-140500000D02*
G75*
G03*
X185500000Y-140500000I-8000000J0D01*
G01*
X265500000Y-140500000D02*
G75*
G03*
X265500000Y-140500000I-8000000J0D01*
G01*
X265500000Y-162500000D02*
G75*
G03*
X265500000Y-162500000I-8000000J0D01*
G01*
X265500000Y-118500000D02*
G75*
G03*
X265500000Y-118500000I-8000000J0D01*
G01*
X125500000Y-140500000D02*
G75*
G03*
X125500000Y-140500000I-8000000J0D01*
G01*
X117500000Y-126500000D02*
X117500000Y-154500000D01*
X165500000Y-140500000D02*
G75*
G03*
X165500000Y-140500000I-8000000J0D01*
G01*
X145500000Y-140500000D02*
G75*
G03*
X145500000Y-140500000I-8000000J0D01*
G01*
X197500000Y-126500000D02*
X197500000Y-154500000D01*
X285500000Y-140500000D02*
G75*
G03*
X285500000Y-140500000I-8000000J0D01*
G01*
X105500000Y-162500000D02*
G75*
G03*
X105500000Y-162500000I-8000000J0D01*
G01*
X245500000Y-140500000D02*
G75*
G03*
X245500000Y-140500000I-8000000J0D01*
G01*
X257500000Y-126500000D02*
X257500000Y-154500000D01*
X377500000Y-126500000D02*
X377500000Y-154500000D01*
X385500000Y-140500000D02*
G75*
G03*
X385500000Y-140500000I-8000000J0D01*
G01*
X345500000Y-162500000D02*
G75*
G03*
X345500000Y-162500000I-8000000J0D01*
G01*
X157500000Y-126500000D02*
X157500000Y-154500000D01*
X365500000Y-140500000D02*
G75*
G03*
X365500000Y-140500000I-8000000J0D01*
G01*
X145500000Y-118500000D02*
G75*
G03*
X145500000Y-118500000I-8000000J0D01*
G01*
X385500000Y-118500000D02*
G75*
G03*
X385500000Y-118500000I-8000000J0D01*
G01*
X365500000Y-162500000D02*
G75*
G03*
X365500000Y-162500000I-8000000J0D01*
G01*
X369500000Y-118500000D02*
X85500000Y-118500000D01*
X305500000Y-162500000D02*
G75*
G03*
X305500000Y-162500000I-8000000J0D01*
G01*
X145500000Y-162500000D02*
G75*
G03*
X145500000Y-162500000I-8000000J0D01*
G01*
X369500000Y-162500000D02*
X85500000Y-162500000D01*
X125500000Y-118500000D02*
G75*
G03*
X125500000Y-118500000I-8000000J0D01*
G01*
X325500000Y-118500000D02*
G75*
G03*
X325500000Y-118500000I-8000000J0D01*
G01*
X245500000Y-118500000D02*
G75*
G03*
X245500000Y-118500000I-8000000J0D01*
G01*
X85500000Y-162500000D02*
G75*
G03*
X85500000Y-162500000I-8000000J0D01*
G01*
X205500000Y-118500000D02*
G75*
G03*
X205500000Y-118500000I-8000000J0D01*
G01*
X317500000Y-126500000D02*
X317500000Y-154500000D01*
X245500000Y-162500000D02*
G75*
G03*
X245500000Y-162500000I-8000000J0D01*
G01*
M02*
