%TF.GenerationSoftware,KiCad,Pcbnew,7.0.9*%
%TF.CreationDate,2023-12-31T17:34:02-06:00*%
%TF.ProjectId,AnalogSequencerFaceplate,416e616c-6f67-4536-9571-75656e636572,rev?*%
%TF.SameCoordinates,Original*%
%TF.FileFunction,Profile,NP*%
%FSLAX46Y46*%
G04 Gerber Fmt 4.6, Leading zero omitted, Abs format (unit mm)*
G04 Created by KiCad (PCBNEW 7.0.9) date 2023-12-31 17:34:02*
%MOMM*%
%LPD*%
G01*
G04 APERTURE LIST*
%TA.AperFunction,Profile*%
%ADD10C,0.100000*%
%TD*%
G04 APERTURE END LIST*
D10*
X136250000Y-185500000D02*
G75*
G03*
X136250000Y-185500000I-5250000J0D01*
G01*
X110250000Y-185500000D02*
G75*
G03*
X110250000Y-185500000I-5500000J0D01*
G01*
X380100000Y-104500000D02*
G75*
G03*
X380100000Y-104500000I-3100000J0D01*
G01*
X380750000Y-140500000D02*
G75*
G03*
X380750000Y-140500000I-3250000J0D01*
G01*
X379800000Y-93000000D02*
G75*
G03*
X379800000Y-93000000I-2800000J0D01*
G01*
X380750000Y-118500000D02*
G75*
G03*
X380750000Y-118500000I-3250000J0D01*
G01*
X380750000Y-162500000D02*
G75*
G03*
X380750000Y-162500000I-3250000J0D01*
G01*
X360100000Y-104500000D02*
G75*
G03*
X360100000Y-104500000I-3100000J0D01*
G01*
X360750000Y-140500000D02*
G75*
G03*
X360750000Y-140500000I-3250000J0D01*
G01*
X359800000Y-93000000D02*
G75*
G03*
X359800000Y-93000000I-2800000J0D01*
G01*
X360750000Y-118500000D02*
G75*
G03*
X360750000Y-118500000I-3250000J0D01*
G01*
X360750000Y-162500000D02*
G75*
G03*
X360750000Y-162500000I-3250000J0D01*
G01*
X340100000Y-104500000D02*
G75*
G03*
X340100000Y-104500000I-3100000J0D01*
G01*
X340750000Y-140500000D02*
G75*
G03*
X340750000Y-140500000I-3250000J0D01*
G01*
X339800000Y-93000000D02*
G75*
G03*
X339800000Y-93000000I-2800000J0D01*
G01*
X340750000Y-118500000D02*
G75*
G03*
X340750000Y-118500000I-3250000J0D01*
G01*
X340750000Y-162500000D02*
G75*
G03*
X340750000Y-162500000I-3250000J0D01*
G01*
X320100000Y-104500000D02*
G75*
G03*
X320100000Y-104500000I-3100000J0D01*
G01*
X320750000Y-140500000D02*
G75*
G03*
X320750000Y-140500000I-3250000J0D01*
G01*
X319800000Y-93000000D02*
G75*
G03*
X319800000Y-93000000I-2800000J0D01*
G01*
X320750000Y-118500000D02*
G75*
G03*
X320750000Y-118500000I-3250000J0D01*
G01*
X320750000Y-162500000D02*
G75*
G03*
X320750000Y-162500000I-3250000J0D01*
G01*
X300100000Y-104500000D02*
G75*
G03*
X300100000Y-104500000I-3100000J0D01*
G01*
X300750000Y-140500000D02*
G75*
G03*
X300750000Y-140500000I-3250000J0D01*
G01*
X299800000Y-93000000D02*
G75*
G03*
X299800000Y-93000000I-2800000J0D01*
G01*
X300750000Y-118500000D02*
G75*
G03*
X300750000Y-118500000I-3250000J0D01*
G01*
X300750000Y-162500000D02*
G75*
G03*
X300750000Y-162500000I-3250000J0D01*
G01*
X280100000Y-104500000D02*
G75*
G03*
X280100000Y-104500000I-3100000J0D01*
G01*
X280750000Y-140500000D02*
G75*
G03*
X280750000Y-140500000I-3250000J0D01*
G01*
X279800000Y-93000000D02*
G75*
G03*
X279800000Y-93000000I-2800000J0D01*
G01*
X280750000Y-118500000D02*
G75*
G03*
X280750000Y-118500000I-3250000J0D01*
G01*
X280750000Y-162500000D02*
G75*
G03*
X280750000Y-162500000I-3250000J0D01*
G01*
X260100000Y-104500000D02*
G75*
G03*
X260100000Y-104500000I-3100000J0D01*
G01*
X260750000Y-140500000D02*
G75*
G03*
X260750000Y-140500000I-3250000J0D01*
G01*
X259800000Y-93000000D02*
G75*
G03*
X259800000Y-93000000I-2800000J0D01*
G01*
X260750000Y-118500000D02*
G75*
G03*
X260750000Y-118500000I-3250000J0D01*
G01*
X260750000Y-162500000D02*
G75*
G03*
X260750000Y-162500000I-3250000J0D01*
G01*
X240100000Y-104500000D02*
G75*
G03*
X240100000Y-104500000I-3100000J0D01*
G01*
X240750000Y-140500000D02*
G75*
G03*
X240750000Y-140500000I-3250000J0D01*
G01*
X239800000Y-93000000D02*
G75*
G03*
X239800000Y-93000000I-2800000J0D01*
G01*
X240750000Y-118500000D02*
G75*
G03*
X240750000Y-118500000I-3250000J0D01*
G01*
X240750000Y-162500000D02*
G75*
G03*
X240750000Y-162500000I-3250000J0D01*
G01*
X220100000Y-104500000D02*
G75*
G03*
X220100000Y-104500000I-3100000J0D01*
G01*
X220750000Y-140500000D02*
G75*
G03*
X220750000Y-140500000I-3250000J0D01*
G01*
X219800000Y-93000000D02*
G75*
G03*
X219800000Y-93000000I-2800000J0D01*
G01*
X220750000Y-118500000D02*
G75*
G03*
X220750000Y-118500000I-3250000J0D01*
G01*
X220750000Y-162500000D02*
G75*
G03*
X220750000Y-162500000I-3250000J0D01*
G01*
X200100000Y-104500000D02*
G75*
G03*
X200100000Y-104500000I-3100000J0D01*
G01*
X200750000Y-140500000D02*
G75*
G03*
X200750000Y-140500000I-3250000J0D01*
G01*
X199800000Y-93000000D02*
G75*
G03*
X199800000Y-93000000I-2800000J0D01*
G01*
X200750000Y-118500000D02*
G75*
G03*
X200750000Y-118500000I-3250000J0D01*
G01*
X200750000Y-162500000D02*
G75*
G03*
X200750000Y-162500000I-3250000J0D01*
G01*
X180100000Y-104500000D02*
G75*
G03*
X180100000Y-104500000I-3100000J0D01*
G01*
X180750000Y-140500000D02*
G75*
G03*
X180750000Y-140500000I-3250000J0D01*
G01*
X179800000Y-93000000D02*
G75*
G03*
X179800000Y-93000000I-2800000J0D01*
G01*
X180750000Y-118500000D02*
G75*
G03*
X180750000Y-118500000I-3250000J0D01*
G01*
X180750000Y-162500000D02*
G75*
G03*
X180750000Y-162500000I-3250000J0D01*
G01*
X160100000Y-104500000D02*
G75*
G03*
X160100000Y-104500000I-3100000J0D01*
G01*
X160750000Y-140500000D02*
G75*
G03*
X160750000Y-140500000I-3250000J0D01*
G01*
X159800000Y-93000000D02*
G75*
G03*
X159800000Y-93000000I-2800000J0D01*
G01*
X160750000Y-118500000D02*
G75*
G03*
X160750000Y-118500000I-3250000J0D01*
G01*
X160750000Y-162500000D02*
G75*
G03*
X160750000Y-162500000I-3250000J0D01*
G01*
X140100000Y-104500000D02*
G75*
G03*
X140100000Y-104500000I-3100000J0D01*
G01*
X140750000Y-140500000D02*
G75*
G03*
X140750000Y-140500000I-3250000J0D01*
G01*
X139800000Y-93000000D02*
G75*
G03*
X139800000Y-93000000I-2800000J0D01*
G01*
X140750000Y-118500000D02*
G75*
G03*
X140750000Y-118500000I-3250000J0D01*
G01*
X140750000Y-162500000D02*
G75*
G03*
X140750000Y-162500000I-3250000J0D01*
G01*
X120100000Y-104500000D02*
G75*
G03*
X120100000Y-104500000I-3100000J0D01*
G01*
X119800000Y-93000000D02*
G75*
G03*
X119800000Y-93000000I-2800000J0D01*
G01*
X120750000Y-140500000D02*
G75*
G03*
X120750000Y-140500000I-3250000J0D01*
G01*
X120750000Y-118500000D02*
G75*
G03*
X120750000Y-118500000I-3250000J0D01*
G01*
X120750000Y-162500000D02*
G75*
G03*
X120750000Y-162500000I-3250000J0D01*
G01*
X100100000Y-104500000D02*
G75*
G03*
X100100000Y-104500000I-3100000J0D01*
G01*
X100750000Y-140500000D02*
G75*
G03*
X100750000Y-140500000I-3250000J0D01*
G01*
X99800000Y-93000000D02*
G75*
G03*
X99800000Y-93000000I-2800000J0D01*
G01*
X100750000Y-118500000D02*
G75*
G03*
X100750000Y-118500000I-3250000J0D01*
G01*
X100750000Y-162500000D02*
G75*
G03*
X100750000Y-162500000I-3250000J0D01*
G01*
X77850000Y-195483689D02*
G75*
G03*
X77850000Y-195483689I-2800000J0D01*
G01*
X77850000Y-188500000D02*
G75*
G03*
X77850000Y-188500000I-2800000J0D01*
G01*
X77850000Y-181500000D02*
G75*
G03*
X77850000Y-181500000I-2800000J0D01*
G01*
X77926777Y-174473223D02*
G75*
G03*
X77926777Y-174473223I-2800000J0D01*
G01*
X80750000Y-162500000D02*
G75*
G03*
X80750000Y-162500000I-3250000J0D01*
G01*
X80750000Y-140500000D02*
G75*
G03*
X80750000Y-140500000I-3250000J0D01*
G01*
X80750000Y-118500000D02*
G75*
G03*
X80750000Y-118500000I-3250000J0D01*
G01*
X80100000Y-104500000D02*
G75*
G03*
X80100000Y-104500000I-3100000J0D01*
G01*
X79800000Y-93000000D02*
G75*
G03*
X79800000Y-93000000I-2800000J0D01*
G01*
X70000000Y-78250000D02*
X384900000Y-78250000D01*
X384900000Y-211750000D01*
X70000000Y-211750000D01*
X70000000Y-78250000D01*
M02*
