M48
; DRILL file {KiCad 7.0.9} date Sun Dec 31 16:58:23 2023
; FORMAT={-:-/ absolute / inch / decimal}
; #@! TF.CreationDate,2023-12-31T16:58:23-06:00
; #@! TF.GenerationSoftware,Kicad,Pcbnew,7.0.9
; #@! TF.FileFunction,Plated,1,2,PTH
FMAT,2
INCH
; #@! TA.AperFunction,Plated,PTH,ComponentDrill
T1C0.0256
; #@! TA.AperFunction,Plated,PTH,ComponentDrill
T2C0.0354
; #@! TA.AperFunction,Plated,PTH,ComponentDrill
T3C0.0394
; #@! TA.AperFunction,Plated,PTH,ComponentDrill
T4C0.0433
; #@! TA.AperFunction,Plated,PTH,ComponentDrill
T5C0.0630
; #@! TA.AperFunction,Plated,PTH,ComponentDrill
T6C0.0709
; #@! TA.AperFunction,Plated,PTH,ComponentDrill
T7C0.0906
%
G90
G05
T2
X2.9045Y-7.1457
X2.9045Y-7.4213
X2.9045Y-7.6969
X2.9065Y-6.8701
X3.0045Y-7.1457
X3.0045Y-7.4213
X3.0045Y-7.6969
X3.0065Y-6.8701
X9.1142Y-6.9079
X9.1142Y-7.0079
X9.1142Y-7.6756
X9.1142Y-7.7756
T3
X8.4646Y-7.6181
X8.563Y-7.6181
X8.6614Y-7.6181
X11.2205Y-7.6181
X11.3189Y-7.6181
X11.4173Y-7.6181
T4
X4.9606Y-6.9429
X4.9606Y-7.6634
X5.0591Y-6.9429
X5.0591Y-7.6634
X5.1575Y-6.9429
X5.1575Y-7.6634
X5.2559Y-6.9429
X5.2559Y-7.6634
X5.3543Y-6.9429
X5.3543Y-7.6634
X6.2795Y-7.2539
X6.2795Y-7.4311
X6.5354Y-7.2539
X6.5354Y-7.4311
X6.752Y-7.2539
X6.752Y-7.4311
X7.0079Y-7.2539
X7.0079Y-7.4311
X7.2244Y-7.2539
X7.2244Y-7.4311
X7.4803Y-7.2539
X7.4803Y-7.4311
X7.6969Y-7.2539
X7.6969Y-7.4311
X7.9528Y-7.2539
X7.9528Y-7.4311
T5
X3.7061Y-7.1911
X3.7061Y-7.4152
X3.8178Y-6.9969
X3.8178Y-7.6094
X4.0119Y-6.8852
X4.0119Y-7.7211
X4.0127Y-7.1918
X4.2361Y-6.8852
X4.2361Y-7.7211
X4.4302Y-6.9969
X4.4302Y-7.6094
X4.5419Y-7.1911
X4.5419Y-7.4152
T7
X4.8425Y-7.2598
X5.4724Y-7.2598
T1
G00X6.687Y-6.935
M15
G01X6.687Y-7.0118
M16
G05
G00X7.0098Y-6.935
M15
G01X7.0098Y-7.0118
M16
G05
G00X10.4478Y-6.8937
M15
G01X10.3711Y-6.8937
M16
G05
G00X10.4478Y-7.2165
M15
G01X10.3711Y-7.2165
M16
G05
G00X10.4478Y-7.3661
M15
G01X10.3711Y-7.3661
M16
G05
G00X10.4478Y-7.689
M15
G01X10.3711Y-7.689
M16
G05
G00X12.0659Y-7.1299
M15
G01X11.9892Y-7.1299
M16
G05
G00X12.0659Y-7.4528
M15
G01X11.9892Y-7.4528
M16
G05
G00X12.499Y-6.8642
M15
G01X12.4222Y-6.8642
M16
G05
G00X12.499Y-7.187
M15
G01X12.4222Y-7.187
M16
G05
G00X12.499Y-7.3465
M15
G01X12.4222Y-7.3465
M16
G05
G00X12.499Y-7.6693
M15
G01X12.4222Y-7.6693
M16
G05
G00X13.5817Y-7.1398
M15
G01X13.5049Y-7.1398
M16
G05
G00X13.5817Y-7.4626
M15
G01X13.5049Y-7.4626
M16
G05
G00X14.1132Y-7.1398
M15
G01X14.0364Y-7.1398
M16
G05
G00X14.1132Y-7.4626
M15
G01X14.0364Y-7.4626
M16
G05
T3
G00X5.689Y-7.1181
M15
G01X5.7362Y-7.1181
M16
G05
G00X5.689Y-7.3031
M15
G01X5.7362Y-7.3031
M16
G05
G00X5.689Y-7.4909
M15
G01X5.7362Y-7.4909
M16
G05
G00X5.878Y-7.1181
M15
G01X5.9252Y-7.1181
M16
G05
G00X5.878Y-7.3031
M15
G01X5.9252Y-7.3031
M16
G05
G00X5.878Y-7.4882
M15
G01X5.9252Y-7.4882
M16
G05
G00X6.8898Y-6.7884
M15
G01X6.8701Y-6.7884
M16
G05
G00X9.3976Y-7.1575
M15
G01X9.3504Y-7.1575
M16
G05
G00X9.3976Y-7.3425
M15
G01X9.3504Y-7.3425
M16
G05
G00X9.3976Y-7.5276
M15
G01X9.3504Y-7.5276
M16
G05
G00X9.5866Y-7.1547
M15
G01X9.5394Y-7.1547
M16
G05
G00X9.5866Y-7.3425
M15
G01X9.5394Y-7.3425
M16
G05
G00X9.5866Y-7.5276
M15
G01X9.5394Y-7.5276
M16
G05
G00X9.9646Y-7.1575
M15
G01X9.9173Y-7.1575
M16
G05
G00X9.9646Y-7.3425
M15
G01X9.9173Y-7.3425
M16
G05
G00X9.9646Y-7.5276
M15
G01X9.9173Y-7.5276
M16
G05
G00X10.5945Y-7.0965
M15
G01X10.5945Y-7.0768
M16
G05
G00X10.5945Y-7.5689
M15
G01X10.5945Y-7.5492
M16
G05
G00X12.2126Y-7.3327
M15
G01X12.2126Y-7.313
M16
G05
G00X12.6457Y-7.0669
M15
G01X12.6457Y-7.0472
M16
G05
G00X12.6457Y-7.5492
M15
G01X12.6457Y-7.5295
M16
G05
G00X13.0236Y-7.1496
M15
G01X13.0709Y-7.1496
M16
G05
G00X13.0236Y-7.3346
M15
G01X13.0709Y-7.3346
M16
G05
G00X13.0236Y-7.5197
M15
G01X13.0709Y-7.5197
M16
G05
G00X13.7283Y-7.3425
M15
G01X13.7283Y-7.3228
M16
G05
G00X14.2598Y-7.3425
M15
G01X14.2598Y-7.3228
M16
G05
T4
G00X6.9094Y-7.1585
M15
G01X6.8504Y-7.1585
M16
G05
G00X10.2244Y-7.1161
M15
G01X10.2244Y-7.0571
M16
G05
G00X10.2244Y-7.5886
M15
G01X10.2244Y-7.5295
M16
G05
G00X11.8425Y-7.3524
M15
G01X11.8425Y-7.2933
M16
G05
G00X12.2756Y-7.0866
M15
G01X12.2756Y-7.0276
M16
G05
G00X12.2756Y-7.5689
M15
G01X12.2756Y-7.5098
M16
G05
G00X13.3583Y-7.3622
M15
G01X13.3583Y-7.3031
M16
G05
G00X13.8898Y-7.3622
M15
G01X13.8898Y-7.3031
M16
G05
T6
G00X8.3898Y-7.3484
M15
G01X8.3898Y-7.3366
M16
G05
G00X8.7362Y-7.3484
M15
G01X8.7362Y-7.3366
M16
G05
G00X11.1457Y-7.3484
M15
G01X11.1457Y-7.3366
M16
G05
G00X11.4921Y-7.3484
M15
G01X11.4921Y-7.3366
M16
G05
T0
M30
