M48
; DRILL file {KiCad 7.0.9} date Wed Dec 27 10:42:26 2023
; FORMAT={-:-/ absolute / inch / decimal}
; #@! TF.CreationDate,2023-12-27T10:42:26-06:00
; #@! TF.GenerationSoftware,Kicad,Pcbnew,7.0.9
; #@! TF.FileFunction,Plated,1,4,PTH
FMAT,2
INCH
; #@! TA.AperFunction,Plated,PTH,ViaDrill
T1C0.0157
; #@! TA.AperFunction,Plated,PTH,ComponentDrill
T2C0.0256
; #@! TA.AperFunction,Plated,PTH,ComponentDrill
T3C0.0354
; #@! TA.AperFunction,Plated,PTH,ComponentDrill
T4C0.0394
; #@! TA.AperFunction,Plated,PTH,ComponentDrill
T5C0.0433
; #@! TA.AperFunction,Plated,PTH,ComponentDrill
T6C0.0630
; #@! TA.AperFunction,Plated,PTH,ComponentDrill
T7C0.0709
; #@! TA.AperFunction,Plated,PTH,ComponentDrill
T8C0.0906
; #@! TA.AperFunction,Plated,PTH,ComponentDrill
T9C0.1693
%
G90
G05
T1
X2.6437Y-6.9862
X2.6467Y-4.8701
X2.7087Y-7.248
X2.752Y-7.0266
X2.7778Y-6.9511
X2.7805Y-5.7224
X2.8553Y-7.0295
X2.9068Y-7.2085
X2.9134Y-7.4528
X2.9803Y-6.6142
X2.9923Y-6.4986
X3.0089Y-3.7667
X3.0098Y-6.9823
X3.0148Y-7.1644
X3.0237Y-6.7935
X3.0237Y-6.9281
X3.0768Y-6.248
X3.0815Y-6.9051
X3.1029Y-5.7563
X3.1431Y-5.7506
X3.157Y-6.8871
X3.164Y-6.3511
X3.1821Y-5.5856
X3.1844Y-5.963
X3.1909Y-5.6333
X3.2008Y-7.0187
X3.2804Y-5.7436
X3.2873Y-5.877
X3.3061Y-6.2569
X3.311Y-6.5896
X3.3297Y-5.7333
X3.3721Y-5.7529
X3.3927Y-6.6436
X3.3996Y-7.501
X3.4261Y-4.6245
X3.4272Y-5.751
X3.4409Y-6.6752
X3.5374Y-5.8258
X3.567Y-4.7373
X3.5935Y-5.7963
X3.6289Y-7.1457
X3.6919Y-7.1004
X3.7175Y-4.8595
X3.7224Y-7.3209
X3.7303Y-5.7707
X3.7959Y-5.6093
X3.7962Y-5.6725
X3.7982Y-5.5226
X3.8012Y-3.94
X3.8709Y-7.1141
X3.8709Y-5.3519
X3.9537Y-5.5325
X3.9656Y-4.4439
X4.0089Y-3.5394
X4.0264Y-6.7296
X4.0335Y-4.8907
X4.0763Y-5.8778
X4.0777Y-5.7416
X4.1226Y-7.1433
X4.19Y-5.8799
X4.3026Y-3.754
X4.312Y-5.9931
X4.3258Y-6.624
X4.4114Y-5.2367
X4.4705Y-7.3081
X4.5196Y-5.4408
X4.5365Y-5.7801
X4.6113Y-5.6967
X4.6429Y-5.4603
X4.6842Y-5.4607
X4.7304Y-6.5186
X4.7341Y-5.8691
X4.7362Y-5.4577
X4.7596Y-5.0462
X4.7912Y-4.9892
X4.8268Y-5.3455
X4.837Y-5.4806
X4.8615Y-4.7641
X4.8839Y-6.8406
X4.8894Y-5.7586
X4.8976Y-6.0728
X4.9178Y-3.7609
X4.9183Y-5.8661
X4.9325Y-4.4045
X5.0119Y-5.5148
X5.0876Y-5.6467
X5.1014Y-6.4409
X5.1194Y-4.882
X5.1194Y-5.7821
X5.1289Y-6.0778
X5.2167Y-6.6753
X5.2313Y-5.3268
X5.2673Y-5.1918
X5.2835Y-5.5925
X5.2976Y-6.5858
X5.3162Y-4.7477
X5.3199Y-4.8711
X5.3317Y-7.1152
X5.3584Y-5.4206
X5.3584Y-5.462
X5.3789Y-5.814
X5.4263Y-5.6327
X5.5177Y-5.0955
X5.5423Y-6.3927
X5.5512Y-3.9272
X5.565Y-7.1171
X5.5755Y-5.5358
X5.5811Y-5.3267
X5.5887Y-5.647
X5.5894Y-4.8795
X5.5911Y-5.7102
X5.6132Y-3.6073
X5.6485Y-4.7658
X5.69Y-5.3632
X5.6909Y-4.8465
X5.7205Y-4.0108
X5.7459Y-6.461
X5.7559Y-5.6132
X5.7589Y-5.7278
X5.7641Y-4.5199
X5.7756Y-5.5226
X5.7884Y-6.5984
X5.8018Y-5.7281
X5.8602Y-5.6341
X5.9035Y-7.3371
X5.9109Y-5.3479
X5.9301Y-7.0226
X5.9494Y-5.5942
X5.9508Y-6.003
X5.951Y-5.1809
X5.9698Y-4.8465
X6.0098Y-5.81
X6.0738Y-5.7224
X6.1004Y-4.8071
X6.1228Y-4.2549
X6.2038Y-5.8595
X6.2795Y-6.0512
X6.2965Y-4.5169
X6.2983Y-4.6938
X6.3209Y-4.8602
X6.3474Y-4.2677
X6.3484Y-6.8071
X6.3603Y-6.3292
X6.4252Y-7.4843
X6.438Y-3.4862
X6.439Y-5.4734
X6.4616Y-4.81
X6.4675Y-4.7461
X6.502Y-3.9222
X6.5063Y-6.1166
X6.527Y-5.8871
X6.5276Y-5.8219
X6.5446Y-5.5226
X6.5817Y-5.6398
X6.6161Y-6.5864
X6.6201Y-4.7608
X6.6629Y-7.0297
X6.6772Y-5.0108
X6.7044Y-4.5109
X6.7461Y-5.8829
X6.8706Y-6.7054
X6.9346Y-5.5978
X6.938Y-6.7165
X6.94Y-4.5423
X6.9587Y-3.8652
X6.9596Y-4.7549
X6.9638Y-4.4748
X6.969Y-5.0897
X6.9693Y-5.8224
X6.9734Y-5.7303
X6.9911Y-5.5124
X6.9958Y-5.6295
X7.0115Y-5.4743
X7.0147Y-4.8455
X7.0147Y-5.0517
X7.0147Y-5.4111
X7.0659Y-4.1038
X7.1003Y-5.8947
X7.1161Y-3.4262
X7.125Y-6.7982
X7.1409Y-5.5084
X7.1466Y-4.4322
X7.1499Y-4.6597
X7.1604Y-4.9902
X7.168Y-6.5703
X7.1908Y-5.0822
X7.193Y-5.5946
X7.2014Y-5.4121
X7.2037Y-4.0226
X7.2256Y-6.4663
X7.2316Y-4.8691
X7.2382Y-5.2205
X7.2583Y-4.3759
X7.2586Y-4.6548
X7.2709Y-5.8513
X7.2717Y-4.3179
X7.274Y-5.1693
X7.2801Y-4.7941
X7.3012Y-5.372
X7.3134Y-4.9862
X7.3219Y-5.4793
X7.3297Y-6.8514
X7.3366Y-4.5443
X7.3413Y-6.4043
X7.3505Y-6.7776
X7.3947Y-5.1339
X7.3976Y-5.0256
X7.4078Y-4.7905
X7.4646Y-5.0492
X7.4843Y-4.7884
X7.4883Y-6.8562
X7.5315Y-5.7106
X7.5551Y-4.7746
X7.5812Y-6.0024
X7.6268Y-4.1153
X7.6454Y-4.9542
X7.6891Y-6.669
X7.7838Y-7.4613
X7.8063Y-4.6716
X7.8109Y-4.2642
X7.8227Y-3.5266
X7.8251Y-7.0149
X7.8366Y-3.6142
X7.8368Y-5.518
X7.8491Y-7.3678
X7.8568Y-3.7814
X7.8868Y-3.8495
X7.9026Y-3.9937
X7.9044Y-3.5955
X7.9384Y-3.6461
X7.9567Y-4.8593
X7.9665Y-4.4852
X7.9695Y-5.685
X7.9823Y-5.2707
X8.0039Y-6.7589
X8.029Y-3.8909
X8.0423Y-3.5502
X8.0472Y-6.874
X8.0502Y-3.7147
X8.1264Y-7.1995
X8.1866Y-3.9708
X8.188Y-5.6821
X8.2154Y-4.7141
X8.2262Y-3.8118
X8.2338Y-4.0799
X8.2422Y-4.0394
X8.2515Y-4.5031
X8.2618Y-4.8598
X8.2667Y-4.1703
X8.2687Y-6.6447
X8.3455Y-6.998
X8.3505Y-5.007
X8.3573Y-4.311
X8.3904Y-5.6949
X8.4148Y-3.9814
X8.4154Y-5.8809
X8.4187Y-4.5236
X8.4726Y-3.9703
X8.5413Y-6.472
X8.5472Y-5.7972
X8.5659Y-5.6821
X8.5955Y-6.561
X8.6364Y-3.7161
X8.6624Y-5.3406
X8.689Y-4.373
X8.7402Y-5.4537
X8.7411Y-6.1467
X8.7963Y-5.9793
X8.8366Y-4.2677
X8.8474Y-7.0079
X8.8573Y-5.5413
X8.8612Y-3.7657
X8.8701Y-4.8996
X8.8954Y-6.5376
X8.9026Y-7.1407
X8.9183Y-5.6673
X9.0017Y-4.7373
X9.0463Y-5.7648
X9.0583Y-5.6995
X9.0925Y-5.561
X9.1023Y-5.7483
X9.1969Y-6.1752
X9.2087Y-5.6545
X9.2136Y-5.3839
X9.311Y-5.9114
X9.349Y-3.7739
X9.3848Y-6.5689
X9.3947Y-5.8583
X9.4459Y-5.873
X9.4567Y-5.25
X9.4788Y-5.6854
X9.5216Y-5.6483
X9.5236Y-5.561
X9.5563Y-6.8093
X9.5581Y-5.9606
X9.6919Y-3.5965
X9.6939Y-5.5217
X9.6991Y-5.6488
X9.7165Y-7.3626
X9.7743Y-5.3641
X9.8219Y-6.6102
X9.8376Y-4.2059
X9.8376Y-5.007
X9.9193Y-7.1781
X10.0002Y-4.7373
X10.1004Y-5.5305
X10.1087Y-6.5157
X10.1417Y-5.8346
X10.1959Y-4.8947
X10.252Y-6.1654
X10.3199Y-5.5512
X10.3256Y-5.4777
X10.3422Y-5.7535
X10.3427Y-6.3257
X10.3602Y-3.9478
X10.3711Y-7.4902
X10.398Y-5.3131
X10.3996Y-3.626
X10.4147Y-5.3835
X10.4724Y-6.8909
X10.5089Y-6.4508
X10.5915Y-6.7205
X10.6319Y-3.5207
X10.6693Y-7.2333
X10.6823Y-5.713
X10.7089Y-5.007
X10.8937Y-5.8927
X11.072Y-5.8562
X11.0866Y-3.9902
X11.0866Y-4.8593
X11.0939Y-5.4908
X11.1102Y-5.0118
X11.1309Y-5.2982
X11.1444Y-5.8282
X11.1742Y-6.5266
X11.1791Y-5.4734
X11.1831Y-3.6004
X11.2874Y-6.7687
X11.2976Y-5.9027
X11.3822Y-5.4239
X11.3947Y-6.563
X11.4272Y-6.6463
X11.4296Y-6.3024
X11.4498Y-5.2756
X11.4911Y-4.3425
X11.4939Y-5.0335
X11.5276Y-5.9806
X11.5374Y-7.248
X11.5955Y-6.7667
X11.6063Y-5.7421
X11.6118Y-5.7935
X11.6644Y-5.8991
X11.7644Y-6.272
X11.7816Y-6.6379
X11.8514Y-3.4685
X11.8829Y-6.5464
X11.9449Y-6.7156
X11.9557Y-7.3878
X12.114Y-5.5736
X12.1485Y-5.6654
X12.1772Y-5.8476
X12.2792Y-5.0335
X12.2913Y-5.7126
X12.3591Y-6.2121
X12.4882Y-5.4321
X12.503Y-7.3091
X12.5049Y-5.9311
X12.5404Y-5.69
X12.5842Y-5.77
X12.5886Y-6.9193
X12.6063Y-4.9163
X12.6134Y-5.6145
X12.6215Y-5.9499
X12.6241Y-5.6761
X12.635Y-3.9559
X12.6453Y-5.9158
X12.6686Y-5.652
X12.6791Y-5.3829
X12.683Y-5.9328
X12.683Y-5.4626
X12.7103Y-5.8929
X12.7205Y-5.9596
X12.7608Y-3.7874
X12.7886Y-4.5525
X12.7958Y-6.3943
X12.9291Y-6.7392
X12.935Y-6.5601
X13.0285Y-6.5628
X13.0905Y-6.6421
X13.1353Y-5.0335
X13.1353Y-5.6458
X13.1596Y-6.6855
X13.3356Y-6.6624
X13.4281Y-4.0305
X13.439Y-3.5226
X13.4793Y-5.875
X13.497Y-5.4961
X13.5295Y-4.8799
X13.5719Y-7.3878
X13.6049Y-6.4954
X13.6614Y-5.7549
X13.8396Y-5.0335
X13.9621Y-7.238
X14.0472Y-6.6722
X14.0738Y-3.4321
X14.0935Y-3.937
X14.2943Y-5.7352
X14.4843Y-6.876
X14.7057Y-5.0296
T3
X2.688Y-6.8504
X2.688Y-7.126
X2.688Y-7.4016
X2.69Y-6.5748
X2.7648Y-3.3661
X2.788Y-6.8504
X2.788Y-7.126
X2.788Y-7.4016
X2.79Y-6.5748
X2.8648Y-3.3661
X3.5522Y-3.3661
X3.6522Y-3.3661
X4.3406Y-3.3661
X4.4406Y-3.3661
X5.127Y-3.3661
X5.227Y-3.3661
X5.9154Y-3.3661
X6.0154Y-3.3661
X6.7028Y-3.3661
X6.8028Y-3.3661
X7.4892Y-3.3661
X7.5892Y-3.3661
X8.2776Y-3.3661
X8.3776Y-3.3661
X8.8976Y-6.6126
X8.8976Y-6.7126
X8.8976Y-7.3803
X8.8976Y-7.4803
X9.064Y-3.3661
X9.164Y-3.3661
X9.8514Y-3.3661
X9.9514Y-3.3661
X10.6388Y-3.3661
X10.7388Y-3.3661
X11.4262Y-3.3661
X11.5262Y-3.3661
X12.2136Y-3.3661
X12.3136Y-3.3661
X13.001Y-3.3661
X13.101Y-3.3661
X13.7884Y-3.3661
X13.8884Y-3.3661
X14.5758Y-3.3661
X14.6758Y-3.3661
T4
X2.7362Y-4.6457
X2.7362Y-5.5118
X2.7362Y-6.378
X2.8346Y-4.6457
X2.8346Y-5.5118
X2.8346Y-6.378
X2.9331Y-4.6457
X2.9331Y-5.5118
X2.9331Y-6.378
X3.1717Y-4.3852
X3.1717Y-4.4852
X3.1717Y-4.5852
X3.1717Y-4.6852
X3.1717Y-4.7852
X3.1717Y-4.8852
X3.1717Y-4.9852
X3.1717Y-5.0852
X3.2717Y-4.3852
X3.2717Y-4.4852
X3.2717Y-4.5852
X3.2717Y-4.6852
X3.2717Y-4.7852
X3.2717Y-4.8852
X3.2717Y-4.9852
X3.2717Y-5.0852
X3.5236Y-4.6457
X3.5236Y-5.5118
X3.5236Y-6.378
X3.622Y-4.6457
X3.622Y-5.5118
X3.622Y-6.378
X3.7205Y-4.6457
X3.7205Y-5.5118
X3.7205Y-6.378
X4.311Y-4.6457
X4.311Y-5.5118
X4.311Y-6.378
X4.4094Y-4.6457
X4.4094Y-5.5118
X4.4094Y-6.378
X4.5079Y-4.6457
X4.5079Y-5.5118
X4.5079Y-6.378
X5.0984Y-4.6457
X5.0984Y-5.5118
X5.0984Y-6.378
X5.1969Y-4.6457
X5.1969Y-5.5118
X5.1969Y-6.378
X5.2953Y-4.6457
X5.2953Y-5.5118
X5.2953Y-6.378
X5.8858Y-4.6457
X5.8858Y-5.5118
X5.8858Y-6.378
X5.9843Y-4.6457
X5.9843Y-5.5118
X5.9843Y-6.378
X6.0827Y-4.6457
X6.0827Y-5.5118
X6.0827Y-6.378
X6.6732Y-4.6457
X6.6732Y-5.5118
X6.6732Y-6.378
X6.7717Y-4.6457
X6.7717Y-5.5118
X6.7717Y-6.378
X6.8701Y-4.6457
X6.8701Y-5.5118
X6.8701Y-6.378
X7.4606Y-4.6457
X7.4606Y-5.5118
X7.4606Y-6.378
X7.5591Y-4.6457
X7.5591Y-5.5118
X7.5591Y-6.378
X7.6575Y-4.6457
X7.6575Y-5.5118
X7.6575Y-6.378
X8.248Y-4.6457
X8.248Y-5.5118
X8.248Y-6.378
X8.248Y-7.3228
X8.3465Y-4.6457
X8.3465Y-5.5118
X8.3465Y-6.378
X8.3465Y-7.3228
X8.4449Y-4.6457
X8.4449Y-5.5118
X8.4449Y-6.378
X8.4449Y-7.3228
X9.0354Y-4.6457
X9.0354Y-5.5118
X9.0354Y-6.378
X9.1339Y-4.6457
X9.1339Y-5.5118
X9.1339Y-6.378
X9.2323Y-4.6457
X9.2323Y-5.5118
X9.2323Y-6.378
X9.8228Y-4.6457
X9.8228Y-5.5118
X9.8228Y-6.378
X9.9213Y-4.6457
X9.9213Y-5.5118
X9.9213Y-6.378
X10.0197Y-4.6457
X10.0197Y-5.5118
X10.0197Y-6.378
X10.6102Y-4.6457
X10.6102Y-5.5118
X10.6102Y-6.378
X10.7087Y-4.6457
X10.7087Y-5.5118
X10.7087Y-6.378
X10.8071Y-4.6457
X10.8071Y-5.5118
X10.8071Y-6.378
X11.0039Y-7.3228
X11.1024Y-7.3228
X11.2008Y-7.3228
X11.3976Y-4.6457
X11.3976Y-5.5118
X11.3976Y-6.378
X11.4961Y-4.6457
X11.4961Y-5.5118
X11.4961Y-6.378
X11.5945Y-4.6457
X11.5945Y-5.5118
X11.5945Y-6.378
X12.185Y-4.6457
X12.185Y-5.5118
X12.185Y-6.378
X12.2835Y-4.6457
X12.2835Y-5.5118
X12.2835Y-6.378
X12.3819Y-4.6457
X12.3819Y-5.5118
X12.3819Y-6.378
X12.9724Y-4.6457
X12.9724Y-5.5118
X12.9724Y-6.378
X13.0709Y-4.6457
X13.0709Y-5.5118
X13.0709Y-6.378
X13.1693Y-4.6457
X13.1693Y-5.5118
X13.1693Y-6.378
X13.7598Y-4.6457
X13.7598Y-5.5118
X13.7598Y-6.378
X13.8583Y-4.6457
X13.8583Y-5.5118
X13.8583Y-6.378
X13.9567Y-4.6457
X13.9567Y-5.5118
X13.9567Y-6.378
X14.5472Y-4.6457
X14.5472Y-5.5118
X14.5472Y-6.378
X14.6457Y-4.6457
X14.6457Y-5.5118
X14.6457Y-6.378
X14.7441Y-4.6457
X14.7441Y-5.5118
X14.7441Y-6.378
T5
X4.7441Y-6.6476
X4.7441Y-7.3681
X4.8425Y-6.6476
X4.8425Y-7.3681
X4.9409Y-6.6476
X4.9409Y-7.3681
X5.0394Y-6.6476
X5.0394Y-7.3681
X5.1378Y-6.6476
X5.1378Y-7.3681
X6.063Y-6.9587
X6.063Y-7.1358
X6.3189Y-6.9587
X6.3189Y-7.1358
X6.5354Y-6.9587
X6.5354Y-7.1358
X6.7913Y-6.9587
X6.7913Y-7.1358
X7.0079Y-6.9587
X7.0079Y-7.1358
X7.2638Y-6.9587
X7.2638Y-7.1358
X7.4803Y-6.9587
X7.4803Y-7.1358
X7.7362Y-6.9587
X7.7362Y-7.1358
T6
X3.4896Y-6.8958
X3.4896Y-7.12
X3.6013Y-6.7017
X3.6013Y-7.3141
X3.7954Y-6.59
X3.7954Y-7.4258
X3.7961Y-6.8965
X4.0196Y-6.59
X4.0196Y-7.4258
X4.2137Y-6.7017
X4.2137Y-7.3141
X4.3254Y-6.8958
X4.3254Y-7.12
T8
X4.626Y-6.9646
X5.2559Y-6.9646
T9
X3.1496Y-3.5827
X3.1496Y-7.372
X6.1811Y-6.6535
X14.2913Y-3.5827
X14.5669Y-7.2441
T2
G00X6.4705Y-6.6398
M15
G01X6.4705Y-6.7165
M16
G05
G00X6.7933Y-6.6398
M15
G01X6.7933Y-6.7165
M16
G05
G00X10.2313Y-6.5984
M15
G01X10.1545Y-6.5984
M16
G05
G00X10.2313Y-6.9213
M15
G01X10.1545Y-6.9213
M16
G05
G00X10.2313Y-7.0709
M15
G01X10.1545Y-7.0709
M16
G05
G00X10.2313Y-7.3937
M15
G01X10.1545Y-7.3937
M16
G05
G00X11.8494Y-6.8346
M15
G01X11.7726Y-6.8346
M16
G05
G00X11.8494Y-7.1575
M15
G01X11.7726Y-7.1575
M16
G05
G00X12.2825Y-6.5689
M15
G01X12.2057Y-6.5689
M16
G05
G00X12.2825Y-6.8917
M15
G01X12.2057Y-6.8917
M16
G05
G00X12.2825Y-7.0512
M15
G01X12.2057Y-7.0512
M16
G05
G00X12.2825Y-7.374
M15
G01X12.2057Y-7.374
M16
G05
G00X13.3652Y-6.8445
M15
G01X13.2884Y-6.8445
M16
G05
G00X13.3652Y-7.1673
M15
G01X13.2884Y-7.1673
M16
G05
G00X13.8967Y-6.8445
M15
G01X13.8199Y-6.8445
M16
G05
G00X13.8967Y-7.1673
M15
G01X13.8199Y-7.1673
M16
G05
T4
G00X2.7913Y-3.6339
M15
G01X2.8386Y-3.6339
M16
G05
G00X2.7913Y-3.8189
M15
G01X2.8386Y-3.8189
M16
G05
G00X2.7913Y-4.0039
M15
G01X2.8386Y-4.0039
M16
G05
G00X3.5787Y-3.6339
M15
G01X3.626Y-3.6339
M16
G05
G00X3.5787Y-3.8189
M15
G01X3.626Y-3.8189
M16
G05
G00X3.5787Y-4.0039
M15
G01X3.626Y-4.0039
M16
G05
G00X4.3661Y-3.6339
M15
G01X4.4134Y-3.6339
M16
G05
G00X4.3661Y-3.8189
M15
G01X4.4134Y-3.8189
M16
G05
G00X4.3661Y-4.0039
M15
G01X4.4134Y-4.0039
M16
G05
G00X5.1535Y-3.6339
M15
G01X5.2008Y-3.6339
M16
G05
G00X5.1535Y-3.8189
M15
G01X5.2008Y-3.8189
M16
G05
G00X5.1535Y-4.0039
M15
G01X5.2008Y-4.0039
M16
G05
G00X5.4724Y-6.8228
M15
G01X5.5197Y-6.8228
M16
G05
G00X5.4724Y-7.0079
M15
G01X5.5197Y-7.0079
M16
G05
G00X5.4724Y-7.1957
M15
G01X5.5197Y-7.1957
M16
G05
G00X5.6614Y-6.8228
M15
G01X5.7087Y-6.8228
M16
G05
G00X5.6614Y-7.0079
M15
G01X5.7087Y-7.0079
M16
G05
G00X5.6614Y-7.1929
M15
G01X5.7087Y-7.1929
M16
G05
G00X5.9409Y-3.6339
M15
G01X5.9882Y-3.6339
M16
G05
G00X5.9409Y-3.8189
M15
G01X5.9882Y-3.8189
M16
G05
G00X5.9409Y-4.0039
M15
G01X5.9882Y-4.0039
M16
G05
G00X6.6732Y-6.4931
M15
G01X6.6535Y-6.4931
M16
G05
G00X6.7283Y-3.6339
M15
G01X6.7756Y-3.6339
M16
G05
G00X6.7283Y-3.8189
M15
G01X6.7756Y-3.8189
M16
G05
G00X6.7283Y-4.0039
M15
G01X6.7756Y-4.0039
M16
G05
G00X7.5157Y-3.6339
M15
G01X7.563Y-3.6339
M16
G05
G00X7.5157Y-3.8189
M15
G01X7.563Y-3.8189
M16
G05
G00X7.5157Y-4.0039
M15
G01X7.563Y-4.0039
M16
G05
G00X8.3031Y-3.6339
M15
G01X8.3504Y-3.6339
M16
G05
G00X8.3031Y-3.8189
M15
G01X8.3504Y-3.8189
M16
G05
G00X8.3031Y-4.0039
M15
G01X8.3504Y-4.0039
M16
G05
G00X9.0906Y-3.6339
M15
G01X9.1378Y-3.6339
M16
G05
G00X9.0906Y-3.8189
M15
G01X9.1378Y-3.8189
M16
G05
G00X9.0906Y-4.0039
M15
G01X9.1378Y-4.0039
M16
G05
G00X9.1811Y-6.8622
M15
G01X9.1339Y-6.8622
M16
G05
G00X9.1811Y-7.0472
M15
G01X9.1339Y-7.0472
M16
G05
G00X9.1811Y-7.2323
M15
G01X9.1339Y-7.2323
M16
G05
G00X9.3701Y-6.8594
M15
G01X9.3228Y-6.8594
M16
G05
G00X9.3701Y-7.0472
M15
G01X9.3228Y-7.0472
M16
G05
G00X9.3701Y-7.2323
M15
G01X9.3228Y-7.2323
M16
G05
G00X9.748Y-6.8622
M15
G01X9.7008Y-6.8622
M16
G05
G00X9.748Y-7.0472
M15
G01X9.7008Y-7.0472
M16
G05
G00X9.748Y-7.2323
M15
G01X9.7008Y-7.2323
M16
G05
G00X9.878Y-3.6339
M15
G01X9.9252Y-3.6339
M16
G05
G00X9.878Y-3.8189
M15
G01X9.9252Y-3.8189
M16
G05
G00X9.878Y-4.0039
M15
G01X9.9252Y-4.0039
M16
G05
G00X10.378Y-6.8012
M15
G01X10.378Y-6.7815
M16
G05
G00X10.378Y-7.2736
M15
G01X10.378Y-7.2539
M16
G05
G00X10.6654Y-3.6339
M15
G01X10.7126Y-3.6339
M16
G05
G00X10.6654Y-3.8189
M15
G01X10.7126Y-3.8189
M16
G05
G00X10.6654Y-4.0039
M15
G01X10.7126Y-4.0039
M16
G05
G00X11.4528Y-3.6339
M15
G01X11.5Y-3.6339
M16
G05
G00X11.4528Y-3.8189
M15
G01X11.5Y-3.8189
M16
G05
G00X11.4528Y-4.0039
M15
G01X11.5Y-4.0039
M16
G05
G00X11.9961Y-7.0374
M15
G01X11.9961Y-7.0177
M16
G05
G00X12.2402Y-3.6339
M15
G01X12.2874Y-3.6339
M16
G05
G00X12.2402Y-3.8189
M15
G01X12.2874Y-3.8189
M16
G05
G00X12.2402Y-4.0039
M15
G01X12.2874Y-4.0039
M16
G05
G00X12.4291Y-6.7717
M15
G01X12.4291Y-6.752
M16
G05
G00X12.4291Y-7.2539
M15
G01X12.4291Y-7.2343
M16
G05
G00X12.8071Y-6.8543
M15
G01X12.8543Y-6.8543
M16
G05
G00X12.8071Y-7.0394
M15
G01X12.8543Y-7.0394
M16
G05
G00X12.8071Y-7.2244
M15
G01X12.8543Y-7.2244
M16
G05
G00X13.0276Y-3.6339
M15
G01X13.0748Y-3.6339
M16
G05
G00X13.0276Y-3.8189
M15
G01X13.0748Y-3.8189
M16
G05
G00X13.0276Y-4.0039
M15
G01X13.0748Y-4.0039
M16
G05
G00X13.5118Y-7.0472
M15
G01X13.5118Y-7.0276
M16
G05
G00X13.815Y-3.6339
M15
G01X13.8622Y-3.6339
M16
G05
G00X13.815Y-3.8189
M15
G01X13.8622Y-3.8189
M16
G05
G00X13.815Y-4.0039
M15
G01X13.8622Y-4.0039
M16
G05
G00X14.0433Y-7.0472
M15
G01X14.0433Y-7.0276
M16
G05
G00X14.6024Y-3.6339
M15
G01X14.6496Y-3.6339
M16
G05
G00X14.6024Y-3.8189
M15
G01X14.6496Y-3.8189
M16
G05
G00X14.6024Y-4.0039
M15
G01X14.6496Y-4.0039
M16
G05
T5
G00X6.6929Y-6.8632
M15
G01X6.6339Y-6.8632
M16
G05
G00X10.0079Y-6.8209
M15
G01X10.0079Y-6.7618
M16
G05
G00X10.0079Y-7.2933
M15
G01X10.0079Y-7.2343
M16
G05
G00X11.626Y-7.0571
M15
G01X11.626Y-6.998
M16
G05
G00X12.0591Y-6.7913
M15
G01X12.0591Y-6.7323
M16
G05
G00X12.0591Y-7.2736
M15
G01X12.0591Y-7.2146
M16
G05
G00X13.1417Y-7.0669
M15
G01X13.1417Y-7.0079
M16
G05
G00X13.6732Y-7.0669
M15
G01X13.6732Y-7.0079
M16
G05
T7
G00X2.6614Y-4.376
M15
G01X2.6614Y-4.3642
M16
G05
G00X2.6614Y-5.2421
M15
G01X2.6614Y-5.2303
M16
G05
G00X2.6614Y-6.1083
M15
G01X2.6614Y-6.0965
M16
G05
G00X3.0079Y-4.376
M15
G01X3.0079Y-4.3642
M16
G05
G00X3.0079Y-5.2421
M15
G01X3.0079Y-5.2303
M16
G05
G00X3.0079Y-6.1083
M15
G01X3.0079Y-6.0965
M16
G05
G00X3.4488Y-4.376
M15
G01X3.4488Y-4.3642
M16
G05
G00X3.4488Y-5.2421
M15
G01X3.4488Y-5.2303
M16
G05
G00X3.4488Y-6.1083
M15
G01X3.4488Y-6.0965
M16
G05
G00X3.7953Y-4.376
M15
G01X3.7953Y-4.3642
M16
G05
G00X3.7953Y-5.2421
M15
G01X3.7953Y-5.2303
M16
G05
G00X3.7953Y-6.1083
M15
G01X3.7953Y-6.0965
M16
G05
G00X4.2362Y-4.376
M15
G01X4.2362Y-4.3642
M16
G05
G00X4.2362Y-5.2421
M15
G01X4.2362Y-5.2303
M16
G05
G00X4.2362Y-6.1083
M15
G01X4.2362Y-6.0965
M16
G05
G00X4.5827Y-4.376
M15
G01X4.5827Y-4.3642
M16
G05
G00X4.5827Y-5.2421
M15
G01X4.5827Y-5.2303
M16
G05
G00X4.5827Y-6.1083
M15
G01X4.5827Y-6.0965
M16
G05
G00X5.0236Y-4.376
M15
G01X5.0236Y-4.3642
M16
G05
G00X5.0236Y-5.2421
M15
G01X5.0236Y-5.2303
M16
G05
G00X5.0236Y-6.1083
M15
G01X5.0236Y-6.0965
M16
G05
G00X5.3701Y-4.376
M15
G01X5.3701Y-4.3642
M16
G05
G00X5.3701Y-5.2421
M15
G01X5.3701Y-5.2303
M16
G05
G00X5.3701Y-6.1083
M15
G01X5.3701Y-6.0965
M16
G05
G00X5.811Y-4.376
M15
G01X5.811Y-4.3642
M16
G05
G00X5.811Y-5.2421
M15
G01X5.811Y-5.2303
M16
G05
G00X5.811Y-6.1083
M15
G01X5.811Y-6.0965
M16
G05
G00X6.1575Y-4.376
M15
G01X6.1575Y-4.3642
M16
G05
G00X6.1575Y-5.2421
M15
G01X6.1575Y-5.2303
M16
G05
G00X6.1575Y-6.1083
M15
G01X6.1575Y-6.0965
M16
G05
G00X6.5984Y-4.376
M15
G01X6.5984Y-4.3642
M16
G05
G00X6.5984Y-5.2421
M15
G01X6.5984Y-5.2303
M16
G05
G00X6.5984Y-6.1083
M15
G01X6.5984Y-6.0965
M16
G05
G00X6.9449Y-4.376
M15
G01X6.9449Y-4.3642
M16
G05
G00X6.9449Y-5.2421
M15
G01X6.9449Y-5.2303
M16
G05
G00X6.9449Y-6.1083
M15
G01X6.9449Y-6.0965
M16
G05
G00X7.3858Y-4.376
M15
G01X7.3858Y-4.3642
M16
G05
G00X7.3858Y-5.2421
M15
G01X7.3858Y-5.2303
M16
G05
G00X7.3858Y-6.1083
M15
G01X7.3858Y-6.0965
M16
G05
G00X7.7323Y-4.376
M15
G01X7.7323Y-4.3642
M16
G05
G00X7.7323Y-5.2421
M15
G01X7.7323Y-5.2303
M16
G05
G00X7.7323Y-6.1083
M15
G01X7.7323Y-6.0965
M16
G05
G00X8.1732Y-4.376
M15
G01X8.1732Y-4.3642
M16
G05
G00X8.1732Y-5.2421
M15
G01X8.1732Y-5.2303
M16
G05
G00X8.1732Y-6.1083
M15
G01X8.1732Y-6.0965
M16
G05
G00X8.1732Y-7.0531
M15
G01X8.1732Y-7.0413
M16
G05
G00X8.5197Y-4.376
M15
G01X8.5197Y-4.3642
M16
G05
G00X8.5197Y-5.2421
M15
G01X8.5197Y-5.2303
M16
G05
G00X8.5197Y-6.1083
M15
G01X8.5197Y-6.0965
M16
G05
G00X8.5197Y-7.0531
M15
G01X8.5197Y-7.0413
M16
G05
G00X8.9606Y-4.376
M15
G01X8.9606Y-4.3642
M16
G05
G00X8.9606Y-5.2421
M15
G01X8.9606Y-5.2303
M16
G05
G00X8.9606Y-6.1083
M15
G01X8.9606Y-6.0965
M16
G05
G00X9.3071Y-4.376
M15
G01X9.3071Y-4.3642
M16
G05
G00X9.3071Y-5.2421
M15
G01X9.3071Y-5.2303
M16
G05
G00X9.3071Y-6.1083
M15
G01X9.3071Y-6.0965
M16
G05
G00X9.748Y-4.376
M15
G01X9.748Y-4.3642
M16
G05
G00X9.748Y-5.2421
M15
G01X9.748Y-5.2303
M16
G05
G00X9.748Y-6.1083
M15
G01X9.748Y-6.0965
M16
G05
G00X10.0945Y-4.376
M15
G01X10.0945Y-4.3642
M16
G05
G00X10.0945Y-5.2421
M15
G01X10.0945Y-5.2303
M16
G05
G00X10.0945Y-6.1083
M15
G01X10.0945Y-6.0965
M16
G05
G00X10.5354Y-4.376
M15
G01X10.5354Y-4.3642
M16
G05
G00X10.5354Y-5.2421
M15
G01X10.5354Y-5.2303
M16
G05
G00X10.5354Y-6.1083
M15
G01X10.5354Y-6.0965
M16
G05
G00X10.8819Y-4.376
M15
G01X10.8819Y-4.3642
M16
G05
G00X10.8819Y-5.2421
M15
G01X10.8819Y-5.2303
M16
G05
G00X10.8819Y-6.1083
M15
G01X10.8819Y-6.0965
M16
G05
G00X10.9291Y-7.0531
M15
G01X10.9291Y-7.0413
M16
G05
G00X11.2756Y-7.0531
M15
G01X11.2756Y-7.0413
M16
G05
G00X11.3228Y-4.376
M15
G01X11.3228Y-4.3642
M16
G05
G00X11.3228Y-5.2421
M15
G01X11.3228Y-5.2303
M16
G05
G00X11.3228Y-6.1083
M15
G01X11.3228Y-6.0965
M16
G05
G00X11.6693Y-4.376
M15
G01X11.6693Y-4.3642
M16
G05
G00X11.6693Y-5.2421
M15
G01X11.6693Y-5.2303
M16
G05
G00X11.6693Y-6.1083
M15
G01X11.6693Y-6.0965
M16
G05
G00X12.1102Y-4.376
M15
G01X12.1102Y-4.3642
M16
G05
G00X12.1102Y-5.2421
M15
G01X12.1102Y-5.2303
M16
G05
G00X12.1102Y-6.1083
M15
G01X12.1102Y-6.0965
M16
G05
G00X12.4567Y-4.376
M15
G01X12.4567Y-4.3642
M16
G05
G00X12.4567Y-5.2421
M15
G01X12.4567Y-5.2303
M16
G05
G00X12.4567Y-6.1083
M15
G01X12.4567Y-6.0965
M16
G05
G00X12.8976Y-4.376
M15
G01X12.8976Y-4.3642
M16
G05
G00X12.8976Y-5.2421
M15
G01X12.8976Y-5.2303
M16
G05
G00X12.8976Y-6.1083
M15
G01X12.8976Y-6.0965
M16
G05
G00X13.2441Y-4.376
M15
G01X13.2441Y-4.3642
M16
G05
G00X13.2441Y-5.2421
M15
G01X13.2441Y-5.2303
M16
G05
G00X13.2441Y-6.1083
M15
G01X13.2441Y-6.0965
M16
G05
G00X13.685Y-4.376
M15
G01X13.685Y-4.3642
M16
G05
G00X13.685Y-5.2421
M15
G01X13.685Y-5.2303
M16
G05
G00X13.685Y-6.1083
M15
G01X13.685Y-6.0965
M16
G05
G00X14.0315Y-4.376
M15
G01X14.0315Y-4.3642
M16
G05
G00X14.0315Y-5.2421
M15
G01X14.0315Y-5.2303
M16
G05
G00X14.0315Y-6.1083
M15
G01X14.0315Y-6.0965
M16
G05
G00X14.4724Y-4.376
M15
G01X14.4724Y-4.3642
M16
G05
G00X14.4724Y-5.2421
M15
G01X14.4724Y-5.2303
M16
G05
G00X14.4724Y-6.1083
M15
G01X14.4724Y-6.0965
M16
G05
G00X14.8189Y-4.376
M15
G01X14.8189Y-4.3642
M16
G05
G00X14.8189Y-5.2421
M15
G01X14.8189Y-5.2303
M16
G05
G00X14.8189Y-6.1083
M15
G01X14.8189Y-6.0965
M16
G05
T0
M30
