%TF.GenerationSoftware,KiCad,Pcbnew,7.0.9*%
%TF.CreationDate,2023-12-27T10:42:18-06:00*%
%TF.ProjectId,SoundLab16StepSequencer,536f756e-644c-4616-9231-365374657053,rev?*%
%TF.SameCoordinates,Original*%
%TF.FileFunction,Paste,Top*%
%TF.FilePolarity,Positive*%
%FSLAX46Y46*%
G04 Gerber Fmt 4.6, Leading zero omitted, Abs format (unit mm)*
G04 Created by KiCad (PCBNEW 7.0.9) date 2023-12-27 10:42:18*
%MOMM*%
%LPD*%
G01*
G04 APERTURE LIST*
G04 Aperture macros list*
%AMRoundRect*
0 Rectangle with rounded corners*
0 $1 Rounding radius*
0 $2 $3 $4 $5 $6 $7 $8 $9 X,Y pos of 4 corners*
0 Add a 4 corners polygon primitive as box body*
4,1,4,$2,$3,$4,$5,$6,$7,$8,$9,$2,$3,0*
0 Add four circle primitives for the rounded corners*
1,1,$1+$1,$2,$3*
1,1,$1+$1,$4,$5*
1,1,$1+$1,$6,$7*
1,1,$1+$1,$8,$9*
0 Add four rect primitives between the rounded corners*
20,1,$1+$1,$2,$3,$4,$5,0*
20,1,$1+$1,$4,$5,$6,$7,0*
20,1,$1+$1,$6,$7,$8,$9,0*
20,1,$1+$1,$8,$9,$2,$3,0*%
G04 Aperture macros list end*
%ADD10RoundRect,0.200000X-0.200000X-0.275000X0.200000X-0.275000X0.200000X0.275000X-0.200000X0.275000X0*%
%ADD11RoundRect,0.200000X0.200000X0.275000X-0.200000X0.275000X-0.200000X-0.275000X0.200000X-0.275000X0*%
%ADD12RoundRect,0.200000X0.275000X-0.200000X0.275000X0.200000X-0.275000X0.200000X-0.275000X-0.200000X0*%
%ADD13RoundRect,0.225000X0.250000X-0.225000X0.250000X0.225000X-0.250000X0.225000X-0.250000X-0.225000X0*%
%ADD14RoundRect,0.125000X-0.125000X-0.125000X0.125000X-0.125000X0.125000X0.125000X-0.125000X0.125000X0*%
%ADD15RoundRect,0.125000X0.125000X-0.125000X0.125000X0.125000X-0.125000X0.125000X-0.125000X-0.125000X0*%
%ADD16RoundRect,0.150000X-0.150000X0.512500X-0.150000X-0.512500X0.150000X-0.512500X0.150000X0.512500X0*%
%ADD17RoundRect,0.225000X-0.250000X0.225000X-0.250000X-0.225000X0.250000X-0.225000X0.250000X0.225000X0*%
%ADD18RoundRect,0.200000X-0.275000X0.200000X-0.275000X-0.200000X0.275000X-0.200000X0.275000X0.200000X0*%
%ADD19RoundRect,0.150000X0.150000X-0.512500X0.150000X0.512500X-0.150000X0.512500X-0.150000X-0.512500X0*%
%ADD20RoundRect,0.250000X0.475000X-0.250000X0.475000X0.250000X-0.475000X0.250000X-0.475000X-0.250000X0*%
%ADD21RoundRect,0.250000X-0.250000X-0.475000X0.250000X-0.475000X0.250000X0.475000X-0.250000X0.475000X0*%
%ADD22RoundRect,0.250000X0.250000X0.475000X-0.250000X0.475000X-0.250000X-0.475000X0.250000X-0.475000X0*%
%ADD23R,0.600000X1.500000*%
%ADD24RoundRect,0.125000X0.125000X0.125000X-0.125000X0.125000X-0.125000X-0.125000X0.125000X-0.125000X0*%
%ADD25RoundRect,0.225000X0.225000X0.250000X-0.225000X0.250000X-0.225000X-0.250000X0.225000X-0.250000X0*%
%ADD26RoundRect,0.150000X-0.825000X-0.150000X0.825000X-0.150000X0.825000X0.150000X-0.825000X0.150000X0*%
%ADD27RoundRect,0.250000X-0.475000X0.250000X-0.475000X-0.250000X0.475000X-0.250000X0.475000X0.250000X0*%
%ADD28RoundRect,0.225000X-0.225000X-0.250000X0.225000X-0.250000X0.225000X0.250000X-0.225000X0.250000X0*%
%ADD29RoundRect,0.125000X-0.125000X0.125000X-0.125000X-0.125000X0.125000X-0.125000X0.125000X0.125000X0*%
%ADD30RoundRect,0.150000X-0.875000X-0.150000X0.875000X-0.150000X0.875000X0.150000X-0.875000X0.150000X0*%
%ADD31RoundRect,0.150000X0.850000X0.150000X-0.850000X0.150000X-0.850000X-0.150000X0.850000X-0.150000X0*%
%ADD32RoundRect,0.150000X0.875000X0.150000X-0.875000X0.150000X-0.875000X-0.150000X0.875000X-0.150000X0*%
%ADD33RoundRect,0.150000X-0.150000X0.825000X-0.150000X-0.825000X0.150000X-0.825000X0.150000X0.825000X0*%
%ADD34RoundRect,0.150000X0.825000X0.150000X-0.825000X0.150000X-0.825000X-0.150000X0.825000X-0.150000X0*%
%ADD35R,0.450000X1.750000*%
%ADD36R,1.500000X0.600000*%
%ADD37RoundRect,0.150000X0.150000X-0.850000X0.150000X0.850000X-0.150000X0.850000X-0.150000X-0.850000X0*%
%ADD38R,1.200000X1.200000*%
%ADD39R,1.500000X1.600000*%
G04 APERTURE END LIST*
D10*
%TO.C,R68*%
X170175000Y-125600000D03*
X171825000Y-125600000D03*
%TD*%
D11*
%TO.C,R61*%
X132050000Y-120200000D03*
X130400000Y-120200000D03*
%TD*%
D10*
%TO.C,R117*%
X230750000Y-142425000D03*
X232400000Y-142425000D03*
%TD*%
D12*
%TO.C,R118*%
X237050000Y-143950000D03*
X237050000Y-142300000D03*
%TD*%
D10*
%TO.C,R5*%
X344475000Y-172675000D03*
X346125000Y-172675000D03*
%TD*%
D13*
%TO.C,C27*%
X315975000Y-145375000D03*
X315975000Y-143825000D03*
%TD*%
D10*
%TO.C,R30*%
X73575000Y-164175000D03*
X75225000Y-164175000D03*
%TD*%
D14*
%TO.C,D50*%
X187725000Y-120400000D03*
X189925000Y-120400000D03*
%TD*%
D15*
%TO.C,D25*%
X216500000Y-93250000D03*
X216500000Y-91050000D03*
%TD*%
D16*
%TO.C,Q2*%
X246675000Y-168762500D03*
X244775000Y-168762500D03*
X245725000Y-171037500D03*
%TD*%
D11*
%TO.C,R67*%
X291850000Y-120090000D03*
X290200000Y-120090000D03*
%TD*%
D17*
%TO.C,C40*%
X318700000Y-136700000D03*
X318700000Y-138250000D03*
%TD*%
D15*
%TO.C,D22*%
X156500000Y-93350000D03*
X156500000Y-91150000D03*
%TD*%
D18*
%TO.C,R15*%
X126035000Y-124060000D03*
X126035000Y-125710000D03*
%TD*%
D19*
%TO.C,Q1*%
X219950000Y-151162500D03*
X221850000Y-151162500D03*
X220900000Y-148887500D03*
%TD*%
D10*
%TO.C,R62*%
X310175000Y-120090000D03*
X311825000Y-120090000D03*
%TD*%
D18*
%TO.C,R29*%
X145675000Y-122850000D03*
X145675000Y-124500000D03*
%TD*%
D11*
%TO.C,R120*%
X172625000Y-147950000D03*
X170975000Y-147950000D03*
%TD*%
%TO.C,R11*%
X151575000Y-144750000D03*
X149925000Y-144750000D03*
%TD*%
D20*
%TO.C,C4*%
X144500000Y-139200000D03*
X144500000Y-137300000D03*
%TD*%
D21*
%TO.C,C21*%
X214300000Y-147625000D03*
X216200000Y-147625000D03*
%TD*%
D10*
%TO.C,R79*%
X229950000Y-125600000D03*
X231600000Y-125600000D03*
%TD*%
D22*
%TO.C,C29*%
X302875000Y-169275000D03*
X300975000Y-169275000D03*
%TD*%
D10*
%TO.C,R32*%
X72400000Y-184325000D03*
X74050000Y-184325000D03*
%TD*%
D11*
%TO.C,R77*%
X211850000Y-120290000D03*
X210200000Y-120290000D03*
%TD*%
D14*
%TO.C,D54*%
X178075000Y-105625000D03*
X180275000Y-105625000D03*
%TD*%
D23*
%TO.C,U9*%
X86400000Y-140525000D03*
X85130000Y-140525000D03*
X83860000Y-140525000D03*
X82590000Y-140525000D03*
X81320000Y-140525000D03*
X80050000Y-140525000D03*
X78780000Y-140525000D03*
X77510000Y-140525000D03*
X77510000Y-147625000D03*
X78780000Y-147625000D03*
X80050000Y-147625000D03*
X81320000Y-147625000D03*
X82590000Y-147625000D03*
X83860000Y-147625000D03*
X85130000Y-147625000D03*
X86400000Y-147625000D03*
%TD*%
D13*
%TO.C,C32*%
X270625000Y-165935000D03*
X270625000Y-164385000D03*
%TD*%
D10*
%TO.C,R34*%
X72300000Y-190675000D03*
X73950000Y-190675000D03*
%TD*%
D16*
%TO.C,Q3*%
X182825000Y-135312500D03*
X180925000Y-135312500D03*
X181875000Y-137587500D03*
%TD*%
D11*
%TO.C,R13*%
X151525000Y-147700000D03*
X149875000Y-147700000D03*
%TD*%
D10*
%TO.C,R4*%
X327800000Y-169825000D03*
X329450000Y-169825000D03*
%TD*%
D11*
%TO.C,R72*%
X197325000Y-120075000D03*
X195675000Y-120075000D03*
%TD*%
%TO.C,R51*%
X371800000Y-120400000D03*
X370150000Y-120400000D03*
%TD*%
D15*
%TO.C,D32*%
X356500000Y-93350000D03*
X356500000Y-91150000D03*
%TD*%
D18*
%TO.C,R18*%
X122835000Y-124010000D03*
X122835000Y-125660000D03*
%TD*%
D14*
%TO.C,D51*%
X187745000Y-122400000D03*
X189945000Y-122400000D03*
%TD*%
D11*
%TO.C,R90*%
X182050000Y-163275000D03*
X180400000Y-163275000D03*
%TD*%
D15*
%TO.C,D28*%
X276500000Y-93250000D03*
X276500000Y-91050000D03*
%TD*%
D18*
%TO.C,R81*%
X202450000Y-145475000D03*
X202450000Y-147125000D03*
%TD*%
D10*
%TO.C,R127*%
X258500000Y-165425000D03*
X260150000Y-165425000D03*
%TD*%
D11*
%TO.C,R73*%
X197375000Y-125625000D03*
X195725000Y-125625000D03*
%TD*%
D24*
%TO.C,D49*%
X200975000Y-147150000D03*
X198775000Y-147150000D03*
%TD*%
D12*
%TO.C,R8*%
X162775000Y-154275000D03*
X162775000Y-152625000D03*
%TD*%
D11*
%TO.C,R24*%
X149350000Y-119975000D03*
X147700000Y-119975000D03*
%TD*%
D25*
%TO.C,C43*%
X177600000Y-168975000D03*
X176050000Y-168975000D03*
%TD*%
D14*
%TO.C,D35*%
X323925000Y-166400000D03*
X326125000Y-166400000D03*
%TD*%
D26*
%TO.C,U16*%
X239300000Y-139990000D03*
X239300000Y-141260000D03*
X239300000Y-142530000D03*
X239300000Y-143800000D03*
X239300000Y-145070000D03*
X239300000Y-146340000D03*
X239300000Y-147610000D03*
X244250000Y-147610000D03*
X244250000Y-146340000D03*
X244250000Y-145070000D03*
X244250000Y-143800000D03*
X244250000Y-142530000D03*
X244250000Y-141260000D03*
X244250000Y-139990000D03*
%TD*%
D11*
%TO.C,R108*%
X233950000Y-145570000D03*
X232300000Y-145570000D03*
%TD*%
D15*
%TO.C,D58*%
X241475000Y-151250000D03*
X241475000Y-149050000D03*
%TD*%
D10*
%TO.C,R116*%
X214650000Y-142725000D03*
X216300000Y-142725000D03*
%TD*%
D23*
%TO.C,U6*%
X126375000Y-140475000D03*
X125105000Y-140475000D03*
X123835000Y-140475000D03*
X122565000Y-140475000D03*
X121295000Y-140475000D03*
X120025000Y-140475000D03*
X118755000Y-140475000D03*
X117485000Y-140475000D03*
X117485000Y-147575000D03*
X118755000Y-147575000D03*
X120025000Y-147575000D03*
X121295000Y-147575000D03*
X122565000Y-147575000D03*
X123835000Y-147575000D03*
X125105000Y-147575000D03*
X126375000Y-147575000D03*
%TD*%
D20*
%TO.C,C1*%
X343950000Y-164950000D03*
X343950000Y-163050000D03*
%TD*%
D12*
%TO.C,R121*%
X248275000Y-171250000D03*
X248275000Y-169600000D03*
%TD*%
D13*
%TO.C,C22*%
X134310000Y-147850000D03*
X134310000Y-146300000D03*
%TD*%
D11*
%TO.C,R58*%
X331825000Y-125600000D03*
X330175000Y-125600000D03*
%TD*%
D27*
%TO.C,C34*%
X272325000Y-183725000D03*
X272325000Y-185625000D03*
%TD*%
D11*
%TO.C,R98*%
X202375000Y-170975000D03*
X200725000Y-170975000D03*
%TD*%
D28*
%TO.C,C66*%
X233950000Y-142355000D03*
X235500000Y-142355000D03*
%TD*%
D11*
%TO.C,R36*%
X167150000Y-124275000D03*
X165500000Y-124275000D03*
%TD*%
D10*
%TO.C,R33*%
X206950000Y-188000000D03*
X208600000Y-188000000D03*
%TD*%
%TO.C,R52*%
X91950000Y-120000000D03*
X93600000Y-120000000D03*
%TD*%
D21*
%TO.C,C3*%
X84100000Y-165825000D03*
X86000000Y-165825000D03*
%TD*%
D26*
%TO.C,U15*%
X188800000Y-166150000D03*
X188800000Y-167420000D03*
X188800000Y-168690000D03*
X188800000Y-169960000D03*
X188800000Y-171230000D03*
X188800000Y-172500000D03*
X188800000Y-173770000D03*
X193750000Y-173770000D03*
X193750000Y-172500000D03*
X193750000Y-171230000D03*
X193750000Y-169960000D03*
X193750000Y-168690000D03*
X193750000Y-167420000D03*
X193750000Y-166150000D03*
%TD*%
D20*
%TO.C,C17*%
X88525000Y-147875000D03*
X88525000Y-145975000D03*
%TD*%
D15*
%TO.C,D33*%
X376500000Y-93100000D03*
X376500000Y-90900000D03*
%TD*%
D14*
%TO.C,D48*%
X203825000Y-147025000D03*
X206025000Y-147025000D03*
%TD*%
D12*
%TO.C,R82*%
X198900000Y-181550000D03*
X198900000Y-179900000D03*
%TD*%
D26*
%TO.C,U1*%
X336300000Y-164265000D03*
X336300000Y-165535000D03*
X336300000Y-166805000D03*
X336300000Y-168075000D03*
X336300000Y-169345000D03*
X336300000Y-170615000D03*
X336300000Y-171885000D03*
X341250000Y-171885000D03*
X341250000Y-170615000D03*
X341250000Y-169345000D03*
X341250000Y-168075000D03*
X341250000Y-166805000D03*
X341250000Y-165535000D03*
X341250000Y-164265000D03*
%TD*%
D25*
%TO.C,C14*%
X141250000Y-150400000D03*
X139700000Y-150400000D03*
%TD*%
D14*
%TO.C,D34*%
X327450000Y-166425000D03*
X329650000Y-166425000D03*
%TD*%
D28*
%TO.C,C68*%
X174050000Y-147950000D03*
X175600000Y-147950000D03*
%TD*%
D13*
%TO.C,C41*%
X179550000Y-173975000D03*
X179550000Y-172425000D03*
%TD*%
D26*
%TO.C,U11*%
X292325000Y-165015000D03*
X292325000Y-166285000D03*
X292325000Y-167555000D03*
X292325000Y-168825000D03*
X292325000Y-170095000D03*
X292325000Y-171365000D03*
X292325000Y-172635000D03*
X297275000Y-172635000D03*
X297275000Y-171365000D03*
X297275000Y-170095000D03*
X297275000Y-168825000D03*
X297275000Y-167555000D03*
X297275000Y-166285000D03*
X297275000Y-165015000D03*
%TD*%
D10*
%TO.C,R38*%
X165475000Y-118325000D03*
X167125000Y-118325000D03*
%TD*%
%TO.C,R65*%
X149925000Y-143225000D03*
X151575000Y-143225000D03*
%TD*%
D15*
%TO.C,D23*%
X176500000Y-93200000D03*
X176500000Y-91000000D03*
%TD*%
D10*
%TO.C,R9*%
X173975000Y-142700000D03*
X175625000Y-142700000D03*
%TD*%
D14*
%TO.C,D43*%
X147475000Y-123775000D03*
X149675000Y-123775000D03*
%TD*%
D10*
%TO.C,R97*%
X178150000Y-107375000D03*
X179800000Y-107375000D03*
%TD*%
D28*
%TO.C,C33*%
X300900000Y-171100000D03*
X302450000Y-171100000D03*
%TD*%
D29*
%TO.C,D53*%
X183100000Y-170225000D03*
X183100000Y-172425000D03*
%TD*%
D10*
%TO.C,R91*%
X179475000Y-170550000D03*
X181125000Y-170550000D03*
%TD*%
D30*
%TO.C,U2*%
X83600000Y-168040000D03*
X83600000Y-169310000D03*
X83600000Y-170580000D03*
X83600000Y-171850000D03*
X83600000Y-173120000D03*
X83600000Y-174390000D03*
X83600000Y-175660000D03*
X83600000Y-176930000D03*
X83600000Y-178200000D03*
X83600000Y-179470000D03*
X83600000Y-180740000D03*
X83600000Y-182010000D03*
X74300000Y-182010000D03*
X74300000Y-180740000D03*
X74300000Y-179470000D03*
X74300000Y-178200000D03*
X74300000Y-176930000D03*
X74300000Y-175660000D03*
X74300000Y-174390000D03*
X74300000Y-173120000D03*
X74300000Y-171850000D03*
X74300000Y-170580000D03*
X74300000Y-169310000D03*
X74300000Y-168040000D03*
%TD*%
D14*
%TO.C,D40*%
X147475000Y-125775000D03*
X149675000Y-125775000D03*
%TD*%
D28*
%TO.C,C44*%
X189525000Y-124165000D03*
X191075000Y-124165000D03*
%TD*%
D15*
%TO.C,D20*%
X116500000Y-93100000D03*
X116500000Y-90900000D03*
%TD*%
D11*
%TO.C,R53*%
X93450000Y-125800000D03*
X91800000Y-125800000D03*
%TD*%
%TO.C,R96*%
X185670000Y-114170000D03*
X184020000Y-114170000D03*
%TD*%
%TO.C,R83*%
X179725000Y-167300000D03*
X178075000Y-167300000D03*
%TD*%
D12*
%TO.C,R125*%
X180850000Y-133525000D03*
X180850000Y-131875000D03*
%TD*%
D25*
%TO.C,C9*%
X352150000Y-170125000D03*
X350600000Y-170125000D03*
%TD*%
D10*
%TO.C,R64*%
X142625000Y-115250000D03*
X144275000Y-115250000D03*
%TD*%
%TO.C,R114*%
X222075000Y-141300000D03*
X223725000Y-141300000D03*
%TD*%
%TO.C,R87*%
X175025000Y-167300000D03*
X176675000Y-167300000D03*
%TD*%
D12*
%TO.C,R88*%
X187995000Y-125750000D03*
X187995000Y-124100000D03*
%TD*%
D15*
%TO.C,D30*%
X316500000Y-93250000D03*
X316500000Y-91050000D03*
%TD*%
D10*
%TO.C,R40*%
X268675000Y-175300000D03*
X270325000Y-175300000D03*
%TD*%
D15*
%TO.C,D27*%
X256500000Y-93000000D03*
X256500000Y-90800000D03*
%TD*%
D10*
%TO.C,R20*%
X131160000Y-147830000D03*
X132810000Y-147830000D03*
%TD*%
D24*
%TO.C,D60*%
X230900000Y-144225000D03*
X228700000Y-144225000D03*
%TD*%
D11*
%TO.C,R28*%
X142750000Y-137630000D03*
X141100000Y-137630000D03*
%TD*%
D28*
%TO.C,C11*%
X174050000Y-144300000D03*
X175600000Y-144300000D03*
%TD*%
D11*
%TO.C,R59*%
X331825000Y-120000000D03*
X330175000Y-120000000D03*
%TD*%
D12*
%TO.C,R104*%
X147550000Y-170050000D03*
X147550000Y-168400000D03*
%TD*%
D17*
%TO.C,C10*%
X164575000Y-150850000D03*
X164575000Y-152400000D03*
%TD*%
D25*
%TO.C,C46*%
X182000000Y-161625000D03*
X180450000Y-161625000D03*
%TD*%
D11*
%TO.C,R50*%
X372025000Y-125400000D03*
X370375000Y-125400000D03*
%TD*%
D17*
%TO.C,C25*%
X151275000Y-120325000D03*
X151275000Y-121875000D03*
%TD*%
D10*
%TO.C,R16*%
X166950000Y-147875000D03*
X168600000Y-147875000D03*
%TD*%
D27*
%TO.C,C15*%
X103525000Y-150175000D03*
X103525000Y-152075000D03*
%TD*%
D26*
%TO.C,U7*%
X157500000Y-118365000D03*
X157500000Y-119635000D03*
X157500000Y-120905000D03*
X157500000Y-122175000D03*
X157500000Y-123445000D03*
X157500000Y-124715000D03*
X157500000Y-125985000D03*
X162450000Y-125985000D03*
X162450000Y-124715000D03*
X162450000Y-123445000D03*
X162450000Y-122175000D03*
X162450000Y-120905000D03*
X162450000Y-119635000D03*
X162450000Y-118365000D03*
%TD*%
D15*
%TO.C,D24*%
X186600000Y-93300000D03*
X186600000Y-91100000D03*
%TD*%
D10*
%TO.C,R22*%
X117575000Y-122495000D03*
X119225000Y-122495000D03*
%TD*%
D25*
%TO.C,C8*%
X347575000Y-171825000D03*
X349125000Y-171825000D03*
%TD*%
D28*
%TO.C,C30*%
X268775000Y-173175000D03*
X270325000Y-173175000D03*
%TD*%
D27*
%TO.C,C54*%
X185575000Y-127450000D03*
X185575000Y-129350000D03*
%TD*%
D26*
%TO.C,U18*%
X219625000Y-143145000D03*
X219625000Y-144415000D03*
X219625000Y-145685000D03*
X219625000Y-146955000D03*
X224575000Y-146955000D03*
X224575000Y-145685000D03*
X224575000Y-144415000D03*
X224575000Y-143145000D03*
%TD*%
D14*
%TO.C,D55*%
X196425000Y-167075000D03*
X198625000Y-167075000D03*
%TD*%
D10*
%TO.C,R70*%
X270150000Y-120090000D03*
X271800000Y-120090000D03*
%TD*%
D31*
%TO.C,U19*%
X264350000Y-149420000D03*
X264350000Y-148150000D03*
X264350000Y-146880000D03*
X264350000Y-145610000D03*
X264350000Y-144340000D03*
X264350000Y-143070000D03*
X264350000Y-141800000D03*
X264350000Y-140530000D03*
X259350000Y-140530000D03*
X259350000Y-141800000D03*
X259350000Y-143070000D03*
X259350000Y-144340000D03*
X259350000Y-145610000D03*
X259350000Y-146880000D03*
X259350000Y-148150000D03*
X259350000Y-149420000D03*
%TD*%
D28*
%TO.C,C12*%
X142775000Y-150400000D03*
X144325000Y-150400000D03*
%TD*%
D24*
%TO.C,D52*%
X202650000Y-172825000D03*
X200450000Y-172825000D03*
%TD*%
D10*
%TO.C,R78*%
X229950000Y-120090000D03*
X231600000Y-120090000D03*
%TD*%
D18*
%TO.C,R123*%
X226100000Y-182900000D03*
X226100000Y-184550000D03*
%TD*%
D11*
%TO.C,R2*%
X327450000Y-168225000D03*
X325800000Y-168225000D03*
%TD*%
D10*
%TO.C,R71*%
X270150000Y-125600000D03*
X271800000Y-125600000D03*
%TD*%
D11*
%TO.C,R111*%
X216300000Y-145825000D03*
X214650000Y-145825000D03*
%TD*%
D10*
%TO.C,R6*%
X345800000Y-170150000D03*
X347450000Y-170150000D03*
%TD*%
D15*
%TO.C,D21*%
X136500000Y-93350000D03*
X136500000Y-91150000D03*
%TD*%
D12*
%TO.C,R10*%
X134325000Y-144825000D03*
X134325000Y-143175000D03*
%TD*%
%TO.C,R84*%
X192585000Y-125825000D03*
X192585000Y-124175000D03*
%TD*%
D15*
%TO.C,D19*%
X96500000Y-93350000D03*
X96500000Y-91150000D03*
%TD*%
D32*
%TO.C,U12*%
X206200000Y-103400000D03*
X206200000Y-102130000D03*
X206200000Y-100860000D03*
X206200000Y-99590000D03*
X206200000Y-98320000D03*
X206200000Y-97050000D03*
X206200000Y-95780000D03*
X206200000Y-94510000D03*
X206200000Y-93240000D03*
X206200000Y-91970000D03*
X206200000Y-90700000D03*
X206200000Y-89430000D03*
X196900000Y-89430000D03*
X196900000Y-90700000D03*
X196900000Y-91970000D03*
X196900000Y-93240000D03*
X196900000Y-94510000D03*
X196900000Y-95780000D03*
X196900000Y-97050000D03*
X196900000Y-98320000D03*
X196900000Y-99590000D03*
X196900000Y-100860000D03*
X196900000Y-102130000D03*
X196900000Y-103400000D03*
%TD*%
D11*
%TO.C,R12*%
X169150000Y-141950000D03*
X167500000Y-141950000D03*
%TD*%
D10*
%TO.C,R113*%
X222075000Y-139750000D03*
X223725000Y-139750000D03*
%TD*%
%TO.C,R26*%
X131175000Y-145200000D03*
X132825000Y-145200000D03*
%TD*%
D11*
%TO.C,R74*%
X251650000Y-125600000D03*
X250000000Y-125600000D03*
%TD*%
%TO.C,R45*%
X267500000Y-187550000D03*
X265850000Y-187550000D03*
%TD*%
D27*
%TO.C,C28*%
X288500000Y-169050000D03*
X288500000Y-170950000D03*
%TD*%
D10*
%TO.C,R37*%
X165475000Y-119875000D03*
X167125000Y-119875000D03*
%TD*%
D20*
%TO.C,C20*%
X227025000Y-142700000D03*
X227025000Y-140800000D03*
%TD*%
D12*
%TO.C,R27*%
X152625000Y-125925000D03*
X152625000Y-124275000D03*
%TD*%
D25*
%TO.C,C7*%
X332500000Y-169825000D03*
X330950000Y-169825000D03*
%TD*%
D11*
%TO.C,R69*%
X171825000Y-120200000D03*
X170175000Y-120200000D03*
%TD*%
D14*
%TO.C,D56*%
X196450000Y-169125000D03*
X198650000Y-169125000D03*
%TD*%
D10*
%TO.C,R76*%
X210175000Y-125600000D03*
X211825000Y-125600000D03*
%TD*%
D19*
%TO.C,Q4*%
X220600000Y-166537500D03*
X222500000Y-166537500D03*
X221550000Y-164262500D03*
%TD*%
D10*
%TO.C,R3*%
X328900000Y-168225000D03*
X330550000Y-168225000D03*
%TD*%
D11*
%TO.C,R93*%
X192870000Y-122400000D03*
X191220000Y-122400000D03*
%TD*%
D10*
%TO.C,R31*%
X73600000Y-165825000D03*
X75250000Y-165825000D03*
%TD*%
D28*
%TO.C,C47*%
X179450000Y-168950000D03*
X181000000Y-168950000D03*
%TD*%
D10*
%TO.C,R99*%
X181450000Y-174025000D03*
X183100000Y-174025000D03*
%TD*%
D17*
%TO.C,C24*%
X151075000Y-124325000D03*
X151075000Y-125875000D03*
%TD*%
D21*
%TO.C,C51*%
X193350000Y-164350000D03*
X195250000Y-164350000D03*
%TD*%
D10*
%TO.C,R119*%
X243225000Y-150950000D03*
X244875000Y-150950000D03*
%TD*%
D25*
%TO.C,C65*%
X216250000Y-144275000D03*
X214700000Y-144275000D03*
%TD*%
D12*
%TO.C,R1*%
X167350000Y-87300000D03*
X167350000Y-85650000D03*
%TD*%
D10*
%TO.C,R57*%
X109950000Y-125800000D03*
X111600000Y-125800000D03*
%TD*%
%TO.C,R19*%
X120675000Y-122500000D03*
X122325000Y-122500000D03*
%TD*%
D15*
%TO.C,D63*%
X180800000Y-130550000D03*
X180800000Y-128350000D03*
%TD*%
D18*
%TO.C,R122*%
X243150000Y-168500000D03*
X243150000Y-170150000D03*
%TD*%
D14*
%TO.C,D38*%
X170525000Y-142650000D03*
X172725000Y-142650000D03*
%TD*%
D18*
%TO.C,R107*%
X132450000Y-165300000D03*
X132450000Y-166950000D03*
%TD*%
D33*
%TO.C,U14*%
X185760000Y-120225000D03*
X184490000Y-120225000D03*
X183220000Y-120225000D03*
X181950000Y-120225000D03*
X180680000Y-120225000D03*
X179410000Y-120225000D03*
X178140000Y-120225000D03*
X178140000Y-125175000D03*
X179410000Y-125175000D03*
X180680000Y-125175000D03*
X181950000Y-125175000D03*
X183220000Y-125175000D03*
X184490000Y-125175000D03*
X185760000Y-125175000D03*
%TD*%
D10*
%TO.C,R14*%
X126800000Y-122500000D03*
X128450000Y-122500000D03*
%TD*%
D12*
%TO.C,R44*%
X268500000Y-165950000D03*
X268500000Y-164300000D03*
%TD*%
D10*
%TO.C,R49*%
X70575000Y-125600000D03*
X72225000Y-125600000D03*
%TD*%
D11*
%TO.C,R47*%
X270500000Y-187550000D03*
X268850000Y-187550000D03*
%TD*%
D12*
%TO.C,R115*%
X220600000Y-141350000D03*
X220600000Y-139700000D03*
%TD*%
D24*
%TO.C,D36*%
X172725000Y-145900000D03*
X170525000Y-145900000D03*
%TD*%
D18*
%TO.C,R46*%
X272450000Y-164350000D03*
X272450000Y-166000000D03*
%TD*%
D34*
%TO.C,U5*%
X163825000Y-147760000D03*
X163825000Y-146490000D03*
X163825000Y-145220000D03*
X163825000Y-143950000D03*
X163825000Y-142680000D03*
X163825000Y-141410000D03*
X163825000Y-140140000D03*
X158875000Y-140140000D03*
X158875000Y-141410000D03*
X158875000Y-142680000D03*
X158875000Y-143950000D03*
X158875000Y-145220000D03*
X158875000Y-146490000D03*
X158875000Y-147760000D03*
%TD*%
D10*
%TO.C,R35*%
X165500000Y-125825000D03*
X167150000Y-125825000D03*
%TD*%
D25*
%TO.C,C57*%
X232500000Y-147120000D03*
X230950000Y-147120000D03*
%TD*%
D10*
%TO.C,R95*%
X184270000Y-107355000D03*
X185920000Y-107355000D03*
%TD*%
D24*
%TO.C,D42*%
X205600000Y-189800000D03*
X203400000Y-189800000D03*
%TD*%
D10*
%TO.C,R48*%
X70550000Y-120000000D03*
X72200000Y-120000000D03*
%TD*%
D18*
%TO.C,R21*%
X119935000Y-124010000D03*
X119935000Y-125660000D03*
%TD*%
D25*
%TO.C,C58*%
X235550000Y-147120000D03*
X234000000Y-147120000D03*
%TD*%
D10*
%TO.C,R56*%
X110150000Y-120090000D03*
X111800000Y-120090000D03*
%TD*%
D18*
%TO.C,R110*%
X235480000Y-143970000D03*
X235480000Y-145620000D03*
%TD*%
D10*
%TO.C,R7*%
X174000000Y-145900000D03*
X175650000Y-145900000D03*
%TD*%
D11*
%TO.C,R92*%
X192845000Y-120450000D03*
X191195000Y-120450000D03*
%TD*%
%TO.C,R41*%
X286510000Y-169125000D03*
X284860000Y-169125000D03*
%TD*%
D25*
%TO.C,C42*%
X182020000Y-158565000D03*
X180470000Y-158565000D03*
%TD*%
D12*
%TO.C,R23*%
X116885000Y-125610000D03*
X116885000Y-123960000D03*
%TD*%
D10*
%TO.C,R63*%
X310150000Y-125600000D03*
X311800000Y-125600000D03*
%TD*%
D12*
%TO.C,R105*%
X160650000Y-185150000D03*
X160650000Y-183500000D03*
%TD*%
D10*
%TO.C,R86*%
X180400000Y-160025000D03*
X182050000Y-160025000D03*
%TD*%
D26*
%TO.C,U3*%
X139500000Y-141115000D03*
X139500000Y-142385000D03*
X139500000Y-143655000D03*
X139500000Y-144925000D03*
X139500000Y-146195000D03*
X139500000Y-147465000D03*
X139500000Y-148735000D03*
X144450000Y-148735000D03*
X144450000Y-147465000D03*
X144450000Y-146195000D03*
X144450000Y-144925000D03*
X144450000Y-143655000D03*
X144450000Y-142385000D03*
X144450000Y-141115000D03*
%TD*%
D27*
%TO.C,C36*%
X320475000Y-136275000D03*
X320475000Y-138175000D03*
%TD*%
%TO.C,C5*%
X120100000Y-150325000D03*
X120100000Y-152225000D03*
%TD*%
D26*
%TO.C,U4*%
X179375000Y-140015000D03*
X179375000Y-141285000D03*
X179375000Y-142555000D03*
X179375000Y-143825000D03*
X179375000Y-145095000D03*
X179375000Y-146365000D03*
X179375000Y-147635000D03*
X184325000Y-147635000D03*
X184325000Y-146365000D03*
X184325000Y-145095000D03*
X184325000Y-143825000D03*
X184325000Y-142555000D03*
X184325000Y-141285000D03*
X184325000Y-140015000D03*
%TD*%
D11*
%TO.C,R55*%
X353400000Y-125600000D03*
X351750000Y-125600000D03*
%TD*%
%TO.C,R43*%
X288150000Y-167375000D03*
X286500000Y-167375000D03*
%TD*%
D28*
%TO.C,C23*%
X141150000Y-139180000D03*
X142700000Y-139180000D03*
%TD*%
D10*
%TO.C,R17*%
X123740000Y-122520000D03*
X125390000Y-122520000D03*
%TD*%
D28*
%TO.C,C31*%
X286575000Y-165775000D03*
X288125000Y-165775000D03*
%TD*%
%TO.C,C48*%
X180995000Y-114170000D03*
X182545000Y-114170000D03*
%TD*%
D35*
%TO.C,U13*%
X318375000Y-148075000D03*
X319025000Y-148075000D03*
X319675000Y-148075000D03*
X320325000Y-148075000D03*
X320975000Y-148075000D03*
X321625000Y-148075000D03*
X322275000Y-148075000D03*
X322925000Y-148075000D03*
X323575000Y-148075000D03*
X324225000Y-148075000D03*
X324875000Y-148075000D03*
X325525000Y-148075000D03*
X325525000Y-140875000D03*
X324875000Y-140875000D03*
X324225000Y-140875000D03*
X323575000Y-140875000D03*
X322925000Y-140875000D03*
X322275000Y-140875000D03*
X321625000Y-140875000D03*
X320975000Y-140875000D03*
X320325000Y-140875000D03*
X319675000Y-140875000D03*
X319025000Y-140875000D03*
X318375000Y-140875000D03*
%TD*%
D20*
%TO.C,C2*%
X153075000Y-121850000D03*
X153075000Y-119950000D03*
%TD*%
D22*
%TO.C,C26*%
X208925000Y-189800000D03*
X207025000Y-189800000D03*
%TD*%
D11*
%TO.C,R54*%
X353650000Y-120200000D03*
X352000000Y-120200000D03*
%TD*%
D15*
%TO.C,D29*%
X296500000Y-93250000D03*
X296500000Y-91050000D03*
%TD*%
D29*
%TO.C,D1*%
X137600000Y-185400000D03*
X137600000Y-187600000D03*
%TD*%
D15*
%TO.C,D31*%
X336500000Y-93350000D03*
X336500000Y-91150000D03*
%TD*%
D27*
%TO.C,C6*%
X158850000Y-149475000D03*
X158850000Y-151375000D03*
%TD*%
D25*
%TO.C,C19*%
X168725000Y-144450000D03*
X167175000Y-144450000D03*
%TD*%
D22*
%TO.C,C52*%
X244275000Y-137910000D03*
X242375000Y-137910000D03*
%TD*%
D15*
%TO.C,D26*%
X236500000Y-93250000D03*
X236500000Y-91050000D03*
%TD*%
D18*
%TO.C,R85*%
X178000000Y-172400000D03*
X178000000Y-174050000D03*
%TD*%
D27*
%TO.C,C35*%
X265600000Y-173375000D03*
X265600000Y-175275000D03*
%TD*%
D14*
%TO.C,D41*%
X147465000Y-121755000D03*
X149665000Y-121755000D03*
%TD*%
D12*
%TO.C,R39*%
X284950000Y-167500000D03*
X284950000Y-165850000D03*
%TD*%
D10*
%TO.C,R60*%
X130400000Y-125600000D03*
X132050000Y-125600000D03*
%TD*%
D20*
%TO.C,C38*%
X184575000Y-138375000D03*
X184575000Y-136475000D03*
%TD*%
D12*
%TO.C,R124*%
X179425000Y-137625000D03*
X179425000Y-135975000D03*
%TD*%
D18*
%TO.C,R128*%
X219000000Y-164000000D03*
X219000000Y-165650000D03*
%TD*%
D29*
%TO.C,D37*%
X162775000Y-149175000D03*
X162775000Y-151375000D03*
%TD*%
D13*
%TO.C,C13*%
X132750000Y-143650000D03*
X132750000Y-142100000D03*
%TD*%
D25*
%TO.C,C49*%
X182800000Y-107375000D03*
X181250000Y-107375000D03*
%TD*%
D13*
%TO.C,C45*%
X176450000Y-174000000D03*
X176450000Y-172450000D03*
%TD*%
D12*
%TO.C,R112*%
X223425000Y-150637500D03*
X223425000Y-148987500D03*
%TD*%
%TO.C,R80*%
X174850000Y-174075000D03*
X174850000Y-172425000D03*
%TD*%
D22*
%TO.C,C39*%
X167500000Y-122250000D03*
X165600000Y-122250000D03*
%TD*%
D36*
%TO.C,U17*%
X285400000Y-149315000D03*
X285400000Y-148045000D03*
X285400000Y-146775000D03*
X285400000Y-145505000D03*
X285400000Y-144235000D03*
X285400000Y-142965000D03*
X285400000Y-141695000D03*
X285400000Y-140425000D03*
X278300000Y-140425000D03*
X278300000Y-141695000D03*
X278300000Y-142965000D03*
X278300000Y-144235000D03*
X278300000Y-145505000D03*
X278300000Y-146775000D03*
X278300000Y-148045000D03*
X278300000Y-149315000D03*
%TD*%
D11*
%TO.C,R66*%
X291850000Y-125600000D03*
X290200000Y-125600000D03*
%TD*%
D14*
%TO.C,D39*%
X166725000Y-146175000D03*
X168925000Y-146175000D03*
%TD*%
D37*
%TO.C,U8*%
X97505000Y-147425000D03*
X98775000Y-147425000D03*
X100045000Y-147425000D03*
X101315000Y-147425000D03*
X102585000Y-147425000D03*
X103855000Y-147425000D03*
X105125000Y-147425000D03*
X106395000Y-147425000D03*
X106395000Y-142425000D03*
X105125000Y-142425000D03*
X103855000Y-142425000D03*
X102585000Y-142425000D03*
X101315000Y-142425000D03*
X100045000Y-142425000D03*
X98775000Y-142425000D03*
X97505000Y-142425000D03*
%TD*%
D15*
%TO.C,D18*%
X66800000Y-91100000D03*
X66800000Y-88900000D03*
%TD*%
D33*
%TO.C,U10*%
X269905000Y-178625000D03*
X268635000Y-178625000D03*
X267365000Y-178625000D03*
X266095000Y-178625000D03*
X266095000Y-183575000D03*
X267365000Y-183575000D03*
X268635000Y-183575000D03*
X269905000Y-183575000D03*
%TD*%
D38*
%TO.C,RV1*%
X314250000Y-145475000D03*
D39*
X311000000Y-144475000D03*
D38*
X314250000Y-143475000D03*
%TD*%
D12*
%TO.C,R126*%
X182750000Y-133525000D03*
X182750000Y-131875000D03*
%TD*%
D15*
%TO.C,D62*%
X184550000Y-134900000D03*
X184550000Y-132700000D03*
%TD*%
D25*
%TO.C,C67*%
X244825000Y-149300000D03*
X243275000Y-149300000D03*
%TD*%
D12*
%TO.C,R42*%
X271825000Y-179725000D03*
X271825000Y-178075000D03*
%TD*%
D10*
%TO.C,R25*%
X114535000Y-122510000D03*
X116185000Y-122510000D03*
%TD*%
D11*
%TO.C,R94*%
X179525000Y-114150000D03*
X177875000Y-114150000D03*
%TD*%
%TO.C,R75*%
X251650000Y-120200000D03*
X250000000Y-120200000D03*
%TD*%
D12*
%TO.C,R89*%
X185075000Y-171325000D03*
X185075000Y-172975000D03*
%TD*%
M02*
